<svg xmlns="http://www.w3.org/2000/svg" viewBox="0 0 750 500"><g id="freepik--background-complete--inject-8"><rect x="35.18" y="81.3" width="33.29" height="65.99" style="fill:#f5f5f5"></rect><rect x="69.75" y="81.3" width="35.97" height="65.99" style="fill:#f5f5f5"></rect><rect x="69.75" y="151.91" width="35.97" height="63.76" style="fill:#f5f5f5"></rect><polygon points="110.33 80.16 148.22 80.16 148.22 21.62 149.5 21.62 149.5 80.16 180.33 80.16 180.33 20.32 110.33 20.32 110.33 80.16" style="fill:#f5f5f5"></polygon><rect x="149.5" y="81.3" width="30.83" height="65.99" style="fill:#f5f5f5"></rect><rect x="149.5" y="151.91" width="30.83" height="63.76" style="fill:#f5f5f5"></rect><rect x="35.18" y="151.91" width="33.29" height="63.76" style="fill:#f5f5f5"></rect><rect x="110.33" y="151.91" width="37.88" height="63.76" style="fill:#f5f5f5"></rect><rect x="35.18" y="216.81" width="33.29" height="57.46" style="fill:#f5f5f5"></rect><rect x="149.5" y="216.81" width="30.83" height="57.46" style="fill:#f5f5f5"></rect><polygon points="68.47 80.16 68.47 21.62 69.75 21.62 69.75 80.16 105.72 80.16 105.72 20.32 35.18 20.32 35.18 80.16 68.47 80.16" style="fill:#f5f5f5"></polygon><rect x="110.33" y="216.81" width="37.88" height="57.46" style="fill:#f5f5f5"></rect><rect x="69.75" y="216.81" width="35.97" height="57.46" style="fill:#f5f5f5"></rect><rect x="110.33" y="81.3" width="37.88" height="65.99" style="fill:#f5f5f5"></rect><rect x="217.72" y="56.41" width="78.51" height="81.85" style="fill:#e0e0e0"></rect><rect x="212.41" y="56.41" width="78.51" height="81.85" style="fill:#fafafa"></rect><path d="M290.94,138.27H212.38V56.38h78.56Zm-78.51,0h78.46V56.43H212.43Z" style="fill:#e0e0e0"></path><rect x="222.96" y="67.41" width="57.41" height="59.84" style="fill:#fff"></rect><path d="M223,127.65a9.6,9.6,0,0,1-1.42,1.64c-.91,1-2.2,2.28-3.65,3.7s-2.77,2.69-3.75,3.59a9,9,0,0,1-1.66,1.38,9.64,9.64,0,0,1,1.41-1.64c.92-1,2.21-2.28,3.66-3.7s2.78-2.7,3.76-3.6A8.36,8.36,0,0,1,223,127.65Z" style="fill:#e0e0e0"></path><path d="M280.36,127.5a8.88,8.88,0,0,1,1.65,1.42c1,.91,2.28,2.2,3.7,3.64s2.69,2.78,3.59,3.75a9,9,0,0,1,1.38,1.66,9.24,9.24,0,0,1-1.64-1.4c-1-.92-2.28-2.21-3.7-3.66s-2.7-2.78-3.6-3.76A9.67,9.67,0,0,1,280.36,127.5Z" style="fill:#e0e0e0"></path><path d="M280.21,67.57a9,9,0,0,1,1.41-1.65c.92-1,2.21-2.28,3.65-3.7s2.78-2.69,3.75-3.59a9,9,0,0,1,1.66-1.38,9.08,9.08,0,0,1-1.41,1.64c-.91,1-2.2,2.28-3.65,3.71s-2.78,2.69-3.76,3.59A9.67,9.67,0,0,1,280.21,67.57Z" style="fill:#e0e0e0"></path><path d="M222.8,67.71a9.2,9.2,0,0,1-1.64-1.41c-1-.92-2.28-2.21-3.7-3.65s-2.69-2.77-3.59-3.75a9.44,9.44,0,0,1-1.39-1.66,8.7,8.7,0,0,1,1.64,1.41c1,.91,2.28,2.21,3.71,3.66s2.7,2.77,3.6,3.75A8.72,8.72,0,0,1,222.8,67.71Z" style="fill:#e0e0e0"></path><path d="M280.21,127.25a1.36,1.36,0,0,1,0-.29c0-.21,0-.48,0-.84,0-.75,0-1.83,0-3.23,0-2.83,0-7-.06-12.19,0-10.48-.07-25.42-.11-43.29l.22.22-57.24,0h0l.25-.25c0,22,0,42.51,0,59.84L223,127l41.45.11,11.64.06,3.08,0,.8,0h-.75l-3,0-11.59,0-41.59.12h-.22v-.22c0-17.33,0-37.88,0-59.84v-.26H223l57.24,0h.22v.22c-.05,17.93-.09,32.91-.11,43.43,0,5.21-.05,9.32-.06,12.14,0,1.39,0,2.45,0,3.19,0,.35,0,.61,0,.81S280.21,127.25,280.21,127.25Z" style="fill:#e0e0e0"></path><rect x="242.08" y="87.75" width="19.16" height="19.16" style="fill:#ebebeb"></rect><rect x="476.36" y="56.39" width="78.51" height="81.85" style="fill:#e0e0e0"></rect><rect x="471.04" y="56.39" width="78.51" height="81.85" style="fill:#fafafa"></rect><path d="M549.58,138.26H471V56.36h78.56Zm-78.51,0h78.46V56.41H471.07Z" style="fill:#e0e0e0"></path><rect x="481.6" y="67.39" width="57.41" height="59.84" style="fill:#fff"></rect><path d="M481.6,127.63a9.85,9.85,0,0,1-1.42,1.65c-.92,1-2.2,2.27-3.65,3.69s-2.77,2.69-3.75,3.59a9.44,9.44,0,0,1-1.66,1.39,8.7,8.7,0,0,1,1.41-1.64c.92-1,2.21-2.28,3.66-3.71S479,129.9,480,129A8.36,8.36,0,0,1,481.6,127.63Z" style="fill:#e0e0e0"></path><path d="M539,127.48a9.4,9.4,0,0,1,1.65,1.42c1,.91,2.28,2.2,3.7,3.65s2.69,2.77,3.59,3.75a9,9,0,0,1,1.38,1.66,9.64,9.64,0,0,1-1.64-1.41c-1-.92-2.28-2.21-3.71-3.66s-2.69-2.78-3.59-3.76A9.23,9.23,0,0,1,539,127.48Z" style="fill:#e0e0e0"></path><path d="M538.85,67.55a9.44,9.44,0,0,1,1.41-1.65c.92-1,2.21-2.27,3.65-3.7s2.77-2.69,3.75-3.59a9,9,0,0,1,1.66-1.38,9.08,9.08,0,0,1-1.41,1.64c-.91,1-2.21,2.28-3.65,3.71s-2.78,2.69-3.76,3.59A9.67,9.67,0,0,1,538.85,67.55Z" style="fill:#e0e0e0"></path><path d="M481.44,67.7a9.85,9.85,0,0,1-1.65-1.42c-1-.92-2.27-2.21-3.7-3.65s-2.69-2.77-3.59-3.75a9.61,9.61,0,0,1-1.38-1.66,8.7,8.7,0,0,1,1.64,1.41c1,.92,2.28,2.21,3.71,3.66s2.7,2.78,3.6,3.76A8.48,8.48,0,0,1,481.44,67.7Z" style="fill:#e0e0e0"></path><path d="M538.85,127.23a1.64,1.64,0,0,1,0-.29c0-.2,0-.48,0-.84,0-.75,0-1.82,0-3.23,0-2.83,0-7-.06-12.19,0-10.48-.07-25.41-.12-43.29l.23.22-57.25,0h0l.25-.25c0,22,0,42.51,0,59.84l-.22-.22,41.45.11,11.64.06,3.08,0h.05l-3,0-11.59.06-41.59.11h-.22v-.22c0-17.33,0-37.88,0-59.84v-.25h.26l57.25,0h.22v.22c-.05,17.94-.09,32.92-.11,43.43,0,5.22-.05,9.32-.06,12.15q0,2.07,0,3.18c0,.35,0,.62,0,.81S538.85,127.23,538.85,127.23Z" style="fill:#e0e0e0"></path><rect x="500.72" y="87.73" width="19.16" height="19.16" style="fill:#ebebeb"></rect><rect x="435.81" y="43.66" width="7.07" height="151.98" style="fill:#e0e0e0"></rect><rect x="333.27" y="44.84" width="101.46" height="151.01" rx="0.1" style="fill:#f5f5f5"></rect><path d="M435.81,197H332.2a.1.1,0,0,1-.1-.11V43.76a.1.1,0,0,1,.1-.1H435.81a.1.1,0,0,1,.1.1V196.92A.1.1,0,0,1,435.81,197Zm-101.26-2.35h98.91a.11.11,0,0,0,.1-.11V46.12a.11.11,0,0,0-.1-.11H334.55a.11.11,0,0,0-.1.11V194.57A.11.11,0,0,0,334.55,194.68Z" style="fill:#ebebeb"></path><rect x="343.49" y="54.15" width="81.21" height="132.28" rx="0.1" style="fill:#fff"></rect><rect x="361.21" y="91.66" width="45.6" height="53.44" rx="0.06" style="fill:#ebebeb"></rect><path d="M403.19,138.56c.06.17-2.19,1.16-6.47.65a15.79,15.79,0,0,1-7.28-2.9,14.79,14.79,0,0,1-5.65-8.9,12.8,12.8,0,0,1,4.32-12.16,11.51,11.51,0,0,1,3.28-1.92,8.78,8.78,0,0,1,4.1-.47,7.25,7.25,0,0,1,4.11,1.79,5.36,5.36,0,0,1,1.61,4.78,7.78,7.78,0,0,1-2.25,4.1,14.6,14.6,0,0,1-3.43,2.53,18.82,18.82,0,0,1-8.2,2.34,16.27,16.27,0,0,1-8.73-2,15.89,15.89,0,0,1-6.43-6.66,13.56,13.56,0,0,1-1.15-9.33,13.83,13.83,0,0,1,4.92-7.68,12.25,12.25,0,0,1,4.12-2.09,10.24,10.24,0,0,1,4.64-.14,7.55,7.55,0,0,1,4.21,2.38,7,7,0,0,1,1.65,4.5,8.58,8.58,0,0,1-1.09,4.29,11.94,11.94,0,0,1-2.6,3.12,17.53,17.53,0,0,1-6.46,3.43,16.49,16.49,0,0,1-6.8.53,13.89,13.89,0,0,1-5.91-2.27,12.75,12.75,0,0,1-5.65-8.94,10.84,10.84,0,0,1,2.09-7.68A9.22,9.22,0,0,1,368,96.78c1.07-.4,1.67-.39,1.7-.29s-.48.38-1.35,1a10.2,10.2,0,0,0-3,3.24,9.61,9.61,0,0,0-1.23,6.55,10.71,10.71,0,0,0,5,7,12.36,12.36,0,0,0,10.36,1,14.65,14.65,0,0,0,5.19-2.93,6.39,6.39,0,0,0,2.42-4.86A3.5,3.5,0,0,0,384,104a6.71,6.71,0,0,0-3,.14,8.76,8.76,0,0,0-2.82,1.47,10.25,10.25,0,0,0-3.54,5.66,9.84,9.84,0,0,0,.87,6.77,12.29,12.29,0,0,0,4.9,5.1,12.72,12.72,0,0,0,6.75,1.57,15.31,15.31,0,0,0,6.64-1.81,11.46,11.46,0,0,0,2.65-1.87,4.54,4.54,0,0,0,1.35-2.19,1.9,1.9,0,0,0-.55-1.76,4,4,0,0,0-2.19-1,5.63,5.63,0,0,0-2.59.22,8.33,8.33,0,0,0-2.41,1.32,10,10,0,0,0-3.67,9.3,12.79,12.79,0,0,0,4.35,7.69,15.23,15.23,0,0,0,6.24,3.12C400.85,138.68,403.16,138.23,403.19,138.56Z" style="fill:#e0e0e0"></path><path d="M64.67,360.34a40.91,40.91,0,0,0-17.45-6c-2.85-.29-6-.21-8.26,1.52a1.71,1.71,0,0,0-.85,1.51,1.82,1.82,0,0,0,.81,1c7.1,5.42,17.84,6.1,25.75,1.95" style="fill:#e0e0e0"></path><path d="M64.22,359.85A85.86,85.86,0,0,1,53,349.93a28.5,28.5,0,0,1-7.07-13.07c-.3-1.49-.4-3.19.56-4.37,9,7,16,16.09,17.78,27.36" style="fill:#e0e0e0"></path><path d="M64.57,360.27a40.89,40.89,0,0,1,.21-14.8c1.13-4.83,3.76-9.45,7.88-12.21,1.56,3.63.89,7.81-.2,11.61a56.43,56.43,0,0,1-7.82,16.45" style="fill:#e0e0e0"></path><path d="M73.38,376.05c-5.35.65-10,3.47-14,7.09a26.42,26.42,0,0,0-8,13.74c5.25-.33,9.69-4,12.92-8.17s5.46-8.7,9-12.58" style="fill:#e0e0e0"></path><path d="M75.29,378.58a34.54,34.54,0,0,1,4-32.65c3,10.83,1.93,23.07-4,32.65" style="fill:#e0e0e0"></path><path d="M86.93,392.43a24.94,24.94,0,0,0-23.86,13.74c-.3.59-.56,1.34-.16,1.87a1.78,1.78,0,0,0,1.58.47c4.7-.31,8.87-3.14,12.31-6.36s6.43-6.94,10.24-9.73" style="fill:#e0e0e0"></path><path d="M86.56,391.68a44.43,44.43,0,0,1-.44-24.83c.87-3.19,2.34-6.56,5.29-8.06a1,1,0,0,1,.81-.14,1.08,1.08,0,0,1,.52.59A15.1,15.1,0,0,1,94,366.37a45.4,45.4,0,0,1-1.12,7.21c-.93,4.4-1.43,9.14-3.84,12.94a26,26,0,0,0-1.54,2.84c-.46,1-.46,1.31-.88,2.08" style="fill:#e0e0e0"></path><path d="M117.36,396.27c-2.28-8.68.14-19.21,5.61-26.32.4-.53.94-1.09,1.6-1,1,.1,1.26,1.44,1.22,2.45a47.65,47.65,0,0,1-8.43,24.9" style="fill:#e0e0e0"></path><path d="M120.14,398.17c10.54,2.74,22.64.07,31.42-6.39a25.41,25.41,0,0,0-17-2.09c-5.68,1.3-10.88,3.84-14.41,8.48" style="fill:#e0e0e0"></path><path d="M122.48,392.39c5.91-9.63,17.23-15.92,28.51-16.49-1.3,4.59-5.07,8.15-9.32,10.31s-9,3.09-13.69,4c-1.82.36-4.32.75-5.5,2.18" style="fill:#e0e0e0"></path><path d="M118,364.34c1.6-5.48,3.21-11,3.64-16.7s-.37-11.63-3.32-16.52c-5.52,10.68-6.08,23.15-.49,33.79" style="fill:#e0e0e0"></path><path d="M136.52,355c6.46-11.73,19.62-21.09,32.94-22.4-5.14,12.79-19.15,22.68-32.94,22.4" style="fill:#e0e0e0"></path><path d="M132.46,357.25c9.63,1.47,17.82,7.61,26.82,11.34a12.09,12.09,0,0,0,6.06,1.16,4.75,4.75,0,0,0,3-8.4,13.19,13.19,0,0,0-4.4-2.67c-9.8-4.08-20.3-4.18-30.62-1.7" style="fill:#e0e0e0"></path><path d="M126.9,364c2.17.62,2.92,1.75,4.64,3.22a50.23,50.23,0,0,0,20.34,10.44c.77.2,1.79.27,2.18-.43s-.09-1.35-.53-1.9A27.86,27.86,0,0,0,141.25,367c-4.69-1.75-8.75-3.86-14.35-3.4" style="fill:#e0e0e0"></path><path d="M120.61,323.24a38.48,38.48,0,0,0,29.5,10,2,2,0,0,0,1.35-.48c.74-.81-.15-2.05-1-2.73-8.67-6.76-19.18-9.56-29.83-6.82" style="fill:#e0e0e0"></path><path d="M128.06,320.51a41.13,41.13,0,0,1,36.81-6.07c-4.63,4.57-11.06,7-17.54,7.7a55.71,55.71,0,0,1-19.27-1.63" style="fill:#e0e0e0"></path><path d="M125.1,301.78c-.85-8.66-.3-15.49-.9-24.19,0-.69-.2-1.53-.85-1.78-.9-.35-1.66.76-1.95,1.69a27.72,27.72,0,0,0,3.69,24.09" style="fill:#e0e0e0"></path><path d="M124.48,302.74c5.87-3.63,10.27-8.37,14.34-13.94,2.83-3.88,5.22-8.52,4.58-13.28-4-.08-7.76,2.12-10.35,5.14a28.81,28.81,0,0,0-5.27,10.61c-1.15,3.81-2,7.72-3.3,11.47" style="fill:#e0e0e0"></path><path d="M138.57,298.82A115.62,115.62,0,0,0,173.86,278c-4.22-1.7-9-.68-13.26,1-9.63,3.89-17.49,10.45-22.22,19.7" style="fill:#e0e0e0"></path><path d="M128.44,307.47c6.51.71,13.13,1.18,19.6.1s12.35-3.58,18.29-6.08a2.17,2.17,0,0,0,1.24-.94,1.42,1.42,0,0,0-.44-1.57,3.68,3.68,0,0,0-1.56-.73c-6.46-1.81-13.42-1-19.77,1.18a92,92,0,0,0-17.36,8" style="fill:#e0e0e0"></path><path d="M91.24,323.53c-4.45-9-4.16-19.44-.32-28.69,2.71,4.12,3,9.37,2.54,14.27s-2,9.94-2.08,14.87" style="fill:#e0e0e0"></path><path d="M73.48,314.58a40,40,0,0,0-29.73,12.66c5.54.87,11.24-.55,16.28-3s9.52-5.91,14-9.33" style="fill:#e0e0e0"></path><path d="M61.54,310.58c-5.42-.44-10.65-1.11-15.87.49s-10,5.23-12.1,10.26a28.68,28.68,0,0,0,14.88-2.81,84.86,84.86,0,0,0,13.09-7.94" style="fill:#e0e0e0"></path><path d="M79.22,310.77c-4.88-3.2-9.9-6.46-15.59-7.79s-12.27-.34-16.24,3.94c4.61,2.7,10.19,3,15.53,3s11.88-.07,16.91,1.71" style="fill:#e0e0e0"></path><path d="M79.25,311c-8.35-8.19-11.52-22.92-8.16-34.13A51.94,51.94,0,0,1,79.25,311" style="fill:#e0e0e0"></path><path d="M102.21,287.79c1.57-3.66,2.68-7.5,4.09-11.23a32.47,32.47,0,0,1,5.84-10.35,15.38,15.38,0,0,1,10.34-5.36,41.61,41.61,0,0,1-20.07,27" style="fill:#e0e0e0"></path><path d="M98.05,292.63c-2.6-3.58-5.61-8.45-9.15-11.13s-8.13-4.3-12.44-3.27a29,29,0,0,0,21.59,14.4" style="fill:#e0e0e0"></path><path d="M98.88,288.09c-1.7-4.34-3.42-8.72-4.11-13.34s-.27-9.54,2.08-13.56c4.59,8.66,6.06,18,2.27,27" style="fill:#e0e0e0"></path><path d="M102.25,261.19c2.6-8.59,10.46-14.91,19-17.81a6.94,6.94,0,0,1,3.32-.5,2.86,2.86,0,0,1,2.45,2c.31,1.46-.89,2.77-2,3.74a64.32,64.32,0,0,1-22.69,12.53" style="fill:#e0e0e0"></path><path d="M102.34,254.17c.33-5.54.68-11.16,2.48-16.41s5.27-10.17,10.32-12.46c.86,5.59-1.6,11.15-4.58,16S104,250.62,102.21,256" style="fill:#e0e0e0"></path><path d="M102.21,258c-2.15-6.26-2.37-14.21-6.12-19.67-2.62-3.81-6.81-6.4-9.07-10.44a15.89,15.89,0,0,0,.53,11.86,34.39,34.39,0,0,0,6.93,9.92c2.78,3,5.15,5.19,7.73,8.33" style="fill:#e0e0e0"></path><path d="M102.25,442.31c-.17,0-.31-41.76-.32-93.25s.11-93.26.28-93.26.31,41.74.32,93.26S102.42,442.31,102.25,442.31Z" style="fill:#e0e0e0"></path><path d="M138.74,317.23a8.9,8.9,0,0,1-1.57.59l-4.32,1.46c-3.64,1.24-8.65,3-14.08,5.26s-10.45,4.18-13.34,6.69a9.83,9.83,0,0,0-2.68,3.54c-.41,1-.49,1.58-.54,1.57s0-.15,0-.44a6.29,6.29,0,0,1,.3-1.21,9.5,9.5,0,0,1,2.62-3.78,23.09,23.09,0,0,1,5.79-3.6c2.31-1.08,4.88-2.21,7.6-3.33,5.45-2.23,10.49-4,14.18-5.11,1.84-.57,3.34-1,4.38-1.27A8.69,8.69,0,0,1,138.74,317.23Z" style="fill:#e0e0e0"></path><path d="M150.7,287.85a2.57,2.57,0,0,1-.44.47c-.35.34-.8.75-1.34,1.26l-5,4.54L127.27,309c-6.5,5.78-12.11,11.31-16,15.47-2,2.08-3.48,3.8-4.53,5l-1.21,1.38a2.82,2.82,0,0,1-.45.46s.11-.2.36-.54.62-.84,1.12-1.46c1-1.25,2.48-3,4.4-5.14a211.09,211.09,0,0,1,15.92-15.63c6.52-5.77,12.45-11,16.77-14.69l5.13-4.41,1.41-1.17A3.63,3.63,0,0,1,150.7,287.85Z" style="fill:#e0e0e0"></path><path d="M120.25,314.83c-.17-.07,1.19-3.21,2.54-7.17s2-7.31,2.19-7.28a24.9,24.9,0,0,1-1.61,7.47,46.78,46.78,0,0,1-2,5A7.57,7.57,0,0,1,120.25,314.83Z" style="fill:#e0e0e0"></path><path d="M102.29,340.1a7.25,7.25,0,0,1-1-1.16l-2.57-3.29c-2.15-2.78-5.13-6.63-8.47-10.84s-6.41-8-8.64-10.71L79,310.85a8.08,8.08,0,0,1-.9-1.23,7.69,7.69,0,0,1,1.08,1.08c.67.73,1.62,1.79,2.77,3.13,2.31,2.66,5.44,6.39,8.78,10.61s6.27,8.1,8.34,11c1,1.42,1.86,2.59,2.42,3.4A8.69,8.69,0,0,1,102.29,340.1Z" style="fill:#e0e0e0"></path><path d="M94.29,329.83c-.1.11-2.24-2.42-3.35-6.27a17.61,17.61,0,0,1-.76-6.33l.26,0c-.12.49-.2.74-.25.73s0-.27,0-.77l.26,0a29.18,29.18,0,0,0,1.07,6.16C92.59,327.12,94.45,329.73,94.29,329.83Z" style="fill:#e0e0e0"></path><path d="M84,316.84a11,11,0,0,0-2.34-1.36,15.75,15.75,0,0,0-6.5-.52A39.65,39.65,0,0,0,68.58,316a21.09,21.09,0,0,1-2.69.65,8.88,8.88,0,0,1,2.57-1.06,30.15,30.15,0,0,1,6.62-1.25,14.34,14.34,0,0,1,6.7.72A4.2,4.2,0,0,1,84,316.84Z" style="fill:#e0e0e0"></path><path d="M81.51,313.69c-.05.09-1.36-.55-3.59-1.3A36.54,36.54,0,0,0,69,310.54a37.1,37.1,0,0,0-9.12.47c-2.31.41-3.71.84-3.74.75a3,3,0,0,1,1-.41,21.91,21.91,0,0,1,2.7-.76A31.87,31.87,0,0,1,78.07,312a21.55,21.55,0,0,1,2.56,1.17C81.22,313.46,81.53,313.65,81.51,313.69Z" style="fill:#e0e0e0"></path><path d="M102.21,300.38a75.8,75.8,0,0,1-2.62-9.09c-1.28-5.06-2.19-9.19-2-9.23s1.34,4,2.62,9.08S102.37,300.33,102.21,300.38Z" style="fill:#e0e0e0"></path><path d="M102.38,300.38c-.18.05-.94-2.66-2.9-5.44a24,24,0,0,0-4.27-4.4,3.85,3.85,0,0,1,1.65.84,13.29,13.29,0,0,1,3.11,3.21A12.15,12.15,0,0,1,102.38,300.38Z" style="fill:#e0e0e0"></path><path d="M102.25,420.05c-.06,0-.19-1-.66-2.78a39.12,39.12,0,0,0-2.79-7.22c-2.88-5.9-8.13-13.37-14.8-20.86-3.31-3.78-6.51-7.34-9.24-10.75a76.88,76.88,0,0,1-6.6-9.52,45.75,45.75,0,0,1-3.33-7.07c-.31-.87-.53-1.55-.66-2a3.62,3.62,0,0,1-.17-.72c.06,0,.36.95,1,2.65a50.34,50.34,0,0,0,3.48,6.94,79.56,79.56,0,0,0,6.67,9.39c2.73,3.37,5.94,6.92,9.25,10.7,6.69,7.51,11.93,15.08,14.74,21.07a36.15,36.15,0,0,1,2.63,7.36c.19.9.32,1.61.37,2.09A3.45,3.45,0,0,1,102.25,420.05Z" style="fill:#e0e0e0"></path><path d="M135.22,382.81a17.09,17.09,0,0,1-1.72,1,38,38,0,0,0-4.49,3,51.55,51.55,0,0,0-5.88,5.37c-2.07,2.18-4.2,4.72-6.37,7.43-4.34,5.45-8.4,10.27-10.84,14.12-1.23,1.91-2.13,3.52-2.72,4.65a14.74,14.74,0,0,1-1,1.74,1.72,1.72,0,0,1,.16-.49c.13-.31.3-.78.58-1.35a43.69,43.69,0,0,1,2.57-4.77c2.36-3.95,6.39-8.83,10.73-14.27,2.18-2.73,4.33-5.27,6.44-7.44a46.51,46.51,0,0,1,6-5.33,31.21,31.21,0,0,1,4.63-2.83c.57-.29,1-.46,1.35-.6A1.85,1.85,0,0,1,135.22,382.81Z" style="fill:#e0e0e0"></path><path d="M135.87,394.89a24.42,24.42,0,0,1-3.65.53,48.15,48.15,0,0,0-8.67,1.71,25.74,25.74,0,0,0-7.75,4.07c-1.79,1.38-2.63,2.52-2.72,2.46a2.74,2.74,0,0,1,.54-.85,14,14,0,0,1,1.91-1.94,23.56,23.56,0,0,1,7.84-4.32,39,39,0,0,1,8.8-1.55A19.76,19.76,0,0,1,135.87,394.89Z" style="fill:#e0e0e0"></path><path d="M114.15,402.33c-.19-.11,1.46-2.62,2.73-6s1.48-6.4,1.7-6.37a6.1,6.1,0,0,1-.07,2,21,21,0,0,1-1.06,4.62,22.63,22.63,0,0,1-2.12,4.23A5.92,5.92,0,0,1,114.15,402.33Z" style="fill:#e0e0e0"></path><path d="M145.9,350.37a2.33,2.33,0,0,1-.58.31l-1.72.78c-.75.32-1.66.73-2.69,1.28s-2.24,1.08-3.49,1.83l-2,1.13c-.69.4-1.38.87-2.11,1.33-1.46.89-2.94,2-4.51,3.11a84.58,84.58,0,0,0-9.41,8.28,85.61,85.61,0,0,0-8,9.69c-1.07,1.61-2.11,3.12-3,4.62-.43.74-.88,1.44-1.26,2.15l-1.06,2c-.71,1.27-1.22,2.5-1.71,3.55s-.89,2-1.18,2.73-.53,1.28-.73,1.74a2.94,2.94,0,0,1-.29.6,3.15,3.15,0,0,1,.18-.64c.16-.47.37-1.06.62-1.78a29.88,29.88,0,0,1,1.09-2.79c.47-1.07.95-2.31,1.64-3.61.33-.65.67-1.34,1-2.06s.81-1.42,1.23-2.17c.83-1.52,1.87-3.05,2.93-4.68a81.83,81.83,0,0,1,8-9.8,80.87,80.87,0,0,1,9.52-8.31c1.59-1.12,3.09-2.21,4.58-3.09.74-.45,1.43-.91,2.13-1.3l2-1.11c1.28-.73,2.5-1.25,3.55-1.76s2-.89,2.75-1.18l1.76-.68A2.88,2.88,0,0,1,145.9,350.37Z" style="fill:#e0e0e0"></path><path d="M119.81,367.86a4.07,4.07,0,0,1,1.43-2.14A9.11,9.11,0,0,1,127,363.5a16,16,0,0,1,6.09,1.19,8.73,8.73,0,0,1,2.3,1.12,14.62,14.62,0,0,1-2.44-.72,18.64,18.64,0,0,0-5.93-1,9.53,9.53,0,0,0-5.52,1.94A15,15,0,0,0,119.81,367.86Z" style="fill:#e0e0e0"></path><path d="M115.91,371.88c-.17-.09,1.3-2.25,1.64-5.34S117,361,117.18,361a3.62,3.62,0,0,1,.68,1.56,11.16,11.16,0,0,1,.29,4.09,10.91,10.91,0,0,1-1.23,3.91C116.41,371.45,116,371.92,115.91,371.88Z" style="fill:#e0e0e0"></path><path d="M73.41,426c.9,16,5.71,32.19,13.11,48.6h32.16c7-16.25,11.53-32.45,12.33-48.6Z" style="fill:#e0e0e0"></path><path d="M125.79,451.86c0,.16-10.59.3-23.65.3s-23.65-.14-23.65-.3,10.59-.31,23.65-.31S125.79,451.69,125.79,451.86Z" style="fill:#fafafa"></path><path d="M125.07,457.64c0,.16-9.92.3-22.17.3s-22.17-.14-22.17-.3,9.92-.3,22.17-.3S125.07,457.47,125.07,457.64Z" style="fill:#fafafa"></path><path d="M87,436.51a91.66,91.66,0,0,1,0,14.82c-.17,0-.31-3.32-.31-7.41S86.87,436.51,87,436.51Z" style="fill:#fafafa"></path><path d="M104.27,436.51a98.33,98.33,0,0,1,0,15.35c-.17,0-.3-3.44-.3-7.68S104.1,436.51,104.27,436.51Z" style="fill:#fafafa"></path><path d="M120.45,436.38a102.2,102.2,0,0,1,0,15.65c-.17,0-.31-3.5-.31-7.82S120.28,436.38,120.45,436.38Z" style="fill:#fafafa"></path><path d="M130,436.51c0,.17-12.42.3-27.73.3s-27.75-.13-27.75-.3,12.42-.3,27.75-.3S130,436.35,130,436.51Z" style="fill:#fafafa"></path><path d="M664,463.1c-1.72-1.48-5.58-6.17-2.61-11.63,1.09-2,3.41-3,5.5-3.87a22.27,22.27,0,0,0,6-3.12c3.27-2.78,4.17-7.4,6.34-11.11,2.49-4.26,7.13-7.44,12-7.22,5.63.25,10.32,4.85,12.44,10.08s2.2,11,2.25,16.71c0,3.12-.12,6.65-2.41,8.76-2.12,1.95-5.31,2-8.18,1.88l-30.72-.94" style="fill:#f5f5f5"></path><path d="M722.81,378.61H642l14.56,86.8a9.68,9.68,0,0,0,6.9,7.72l.28.08c.24.06.48.14.72.19a10,10,0,0,0,1.65.18v.09l.39-.06h36a9.92,9.92,0,0,0,2-.2,9.74,9.74,0,0,0,8.18-8.48l7-59.81.32-2.38h0l2.78-23.68ZM707.57,434h-8.29l.83-25.19h9.61Zm3-25.19h7.94l-3,25.19h-7.14Zm-23.7,53.12-.5-21.89h11.94l-.72,21.89ZM673.92,440h11.61l.5,21.89H675.62Zm.9,21.89h-9.73c-.92-5.91-2.13-13.59-3.43-21.89h11.46ZM673.45,434l-2-25.19h13.31l.58,25.19Zm12.74,0-.58-25.19h13.7L698.47,434Zm-.72-31.23-.54-23.33h15.36l-.78,23.33Zm-.8,0H671l-1.82-23.33h14.92Zm-14.45,0H655.79c-.51-3.22-1-6.27-1.43-9-1.51-9.44-2.08-13-2.39-14.32h16.44Zm.47,6,2,25.19H660.71c-.4-2.55-.81-5.14-1.21-7.73-.94-5.94-1.87-11.89-2.76-17.46ZM659.9,434h-7.8l-4.22-25.19h8C657.16,416.57,658.53,425.23,659.9,434Zm1,6c1.19,7.58,2.36,15,3.43,21.89h-7.49L653.12,440Zm37.5,21.89.73-21.89h8l-1.87,21.89Zm2-59.16.78-23.33h11.14l-2,23.33ZM651.2,379.41c.33,1.69,1.8,10.87,3.78,23.33h-8.12L643,379.41Zm61,82.49H706L707.86,440h6.94Zm6.95-59.16H711l2-23.33h8.87Z" style="fill:#e0e0e0"></path><rect x="577.06" y="81.3" width="33.29" height="65.99" style="fill:#f5f5f5"></rect><rect x="611.63" y="81.3" width="35.97" height="65.99" style="fill:#f5f5f5"></rect><rect x="611.63" y="151.91" width="35.97" height="63.76" style="fill:#f5f5f5"></rect><polygon points="652.21 80.16 690.1 80.16 690.1 21.62 691.38 21.62 691.38 80.16 722.21 80.16 722.21 20.32 652.21 20.32 652.21 80.16" style="fill:#f5f5f5"></polygon><rect x="691.38" y="81.3" width="30.83" height="65.99" style="fill:#f5f5f5"></rect><rect x="691.38" y="151.91" width="30.83" height="63.76" style="fill:#f5f5f5"></rect><rect x="577.06" y="151.91" width="33.29" height="63.76" style="fill:#f5f5f5"></rect><rect x="652.21" y="151.91" width="37.88" height="63.76" style="fill:#f5f5f5"></rect><rect x="577.06" y="216.81" width="33.29" height="57.46" style="fill:#f5f5f5"></rect><rect x="691.38" y="216.81" width="30.83" height="57.46" style="fill:#f5f5f5"></rect><polygon points="610.35 80.16 610.35 21.62 611.63 21.62 611.63 80.16 647.6 80.16 647.6 20.32 577.06 20.32 577.06 80.16 610.35 80.16" style="fill:#f5f5f5"></polygon><rect x="652.21" y="216.81" width="37.88" height="57.46" style="fill:#f5f5f5"></rect><rect x="611.63" y="216.81" width="35.97" height="57.46" style="fill:#f5f5f5"></rect><rect x="652.21" y="81.3" width="37.88" height="65.99" style="fill:#f5f5f5"></rect></g><g id="freepik--Floor--inject-8"><path d="M707.22,473.36c0,.14-148.75.26-332.2.26s-332.24-.12-332.24-.26S191.5,473.1,375,473.1,707.22,473.22,707.22,473.36Z" style="fill:#263238"></path></g><g id="freepik--Table--inject-8"><rect x="232.02" y="239.57" width="74.5" height="8.16" style="fill:#e0e0e0"></rect><rect x="380.88" y="260.18" width="13.21" height="213.31" style="fill:#e0e0e0"></rect><path d="M380.88,260.18l.8,0h2.45l10,0h.08v.08c0,29.76.09,114.08.18,213.3v.28H380.62v-.26c0-59.6.08-112.95.11-151.43,0-19.2.06-34.68.08-45.37,0-5.33,0-9.46,0-12.27,0-1.39,0-2.45,0-3.18s0-1.07,0-1.07,0,.38,0,1.11,0,1.8,0,3.21c0,2.82,0,7,0,12.33,0,10.71.05,26.21.08,45.43,0,38.43.07,91.72.11,151.24l-.26-.26H394.1l-.26.27v0c.08-99.22.15-183.54.17-213.3l.09.09-9.92,0-2.47,0Z" style="fill:#263238"></path><path d="M571.58,268.3H231.79a6.15,6.15,0,0,1-6.15-6.15h0a6.15,6.15,0,0,1,6.15-6.15H571.58a6.14,6.14,0,0,1,6.14,6.15h0A6.15,6.15,0,0,1,571.58,268.3Z" style="fill:#455a64"></path></g><g id="freepik--mug-2--inject-8"><path d="M423,228.85h30.26L451,245.5s-2,8.19-6.58,8.19H431.29s-5.3-3-6.37-9Z" style="fill:#e0e0e0"></path><path d="M423,228.85a4.79,4.79,0,0,1,.09.53c.05.37.12.87.21,1.48.17,1.33.43,3.2.74,5.55s.69,5.22,1.12,8.48a13.63,13.63,0,0,0,6.26,8.6l-.12,0,10.49,0c.92,0,1.87,0,2.79,0a3.93,3.93,0,0,0,2.43-1,12.07,12.07,0,0,0,3-4.81,19.69,19.69,0,0,0,.69-2.14v0c.81-5.88,1.57-11.48,2.28-16.64l.24.27L431.53,229l-6.26-.06-1.68,0-.6,0a2.93,2.93,0,0,1,.54,0l1.63,0,6.21-.07,21.88-.12h.28l0,.27c-.7,5.16-1.45,10.77-2.25,16.65v0h0c-.2.75-.44,1.48-.71,2.2a12.46,12.46,0,0,1-3.2,5,4.37,4.37,0,0,1-2.74,1.15c-1,0-1.88,0-2.81,0l-10.49,0h-.06l-.05,0a14,14,0,0,1-6.41-8.94c-.43-3.33-.73-6.25-1-8.64s-.46-4.22-.6-5.54c-.07-.6-.11-1.08-.15-1.45A2.93,2.93,0,0,1,423,228.85Z" style="fill:#263238"></path><path d="M451,237.44l.45-.11s.29-.05.05,0,.08,0,.14,0a8,8,0,0,1,1,0c-.32,0,0,0,.12,0l.51.13.44.15c.19,0-.06,0-.09,0l.28.13a8.94,8.94,0,0,1,.84.51l-.07-.05.17.15c.13.12.26.24.38.37s.28.35.1.1c.1.14.21.29.3.44l.21.42c.11.17,0-.06,0-.09s.07.2.1.29a5.26,5.26,0,0,1,.15.53c0,.07.09.5.06.29s0,.22,0,.29a5,5,0,0,1,0,.55c0,.1,0,.2,0,.31s0,.29,0,.06a2.63,2.63,0,0,0-.06.29q-.06.24-.12.45c0,.12-.21.54-.07.22a7.5,7.5,0,0,1-.48.88l-.14.19s.19-.21,0-.07-.27.3-.42.44-.38.3-.23.2-.19.12-.25.15-.26.16-.4.23l-.2.1c.23-.12.11-.05-.06,0a9.06,9.06,0,0,1-1,.28c-.21.05.08,0,.11,0l-.31,0h-.61l-.22,0c-.05,0-.38,0-.14,0s0,0-.05,0l-.3-.06-.58-.17-.07,0c.23.1-.19-.1-.19-.1a1.86,1.86,0,0,0-2.5.66,1.84,1.84,0,0,0,.66,2.49,7.81,7.81,0,0,0,10.23-2.8,8.06,8.06,0,0,0,.86-5.75,7.38,7.38,0,0,0-3.32-4.62,7.87,7.87,0,0,0-6.22-.94,1.83,1.83,0,0,0,1,3.52Z" style="fill:#e0e0e0"></path><path d="M451,237.44a1.19,1.19,0,0,1-.62.11,1.92,1.92,0,0,1-.84-3.57,4.73,4.73,0,0,1,1.77-.46,8.12,8.12,0,0,1,2,0,7.93,7.93,0,0,1,4.16,2,7.43,7.43,0,0,1,2.45,4.67,8.16,8.16,0,0,1-1.34,5.66,7.73,7.73,0,0,1-5.35,3.2,8.45,8.45,0,0,1-2.84-.09,10.32,10.32,0,0,1-1.34-.4l-.63-.28a1.7,1.7,0,0,1-.61-.46,2.08,2.08,0,0,1,2.6-3.18l-.35.22a.24.24,0,0,1,.21-.24c.14,0,.15,0,.14,0h0l.05,0,.09,0,.05,0,0,0,0,0c0-.13.19.38-.11.43h-.16l-.1,0h0a.29.29,0,0,1-.08-.06c-.12-.54.38-.39.23-.4l.06,0,.05,0,.08,0,.19.06a5.15,5.15,0,0,0,.75.19h0s-.05,0,.13.07c0,0,.08,0,.07.22a.24.24,0,0,1-.21.19h-.12l-.1,0h0l-.07,0,0,0s-.14-.07-.06-.29.17-.12.19-.13h.22l.38,0a6.27,6.27,0,0,0,.75,0l0,.46-.09,0h-.12a.18.18,0,0,1-.15-.06.25.25,0,0,1-.06-.26l.05-.08c.14-.09.09,0,.11-.06h0l.2-.06.4-.1.39-.1.18-.06,0,0,0,0c-.11-.09-.06.45.13.39h.09l-.09,0-.2-.4c.18-.09.35-.18.51-.28a1.65,1.65,0,0,0,.25-.15l.06,0,0,0h0a.22.22,0,0,1,.14,0,.25.25,0,0,1,.12.07.22.22,0,0,1,0,.3l0,0-.07.05h0a.2.2,0,0,1-.14,0,.23.23,0,0,1-.17-.14c-.07-.12.09-.29.05-.24h0l0,0a3,3,0,0,0,.42-.38l.19-.2.05-.05,0,0,0,0h0s.23,0,.28.14,0,.11,0,.14h0l0,0v0l-.09.09-.34-.25c.24-.33.41-.7.61-1l.37.18,0,.06,0,0,0,.05,0,0s0,.05-.16.06a.21.21,0,0,1-.19-.23v-.05l.06-.14c0-.1.06-.16.09-.25s.1-.34.13-.52l0-.14v0h0a.19.19,0,0,1,.08-.11.19.19,0,0,1,.19,0,.19.19,0,0,1,.08.06.19.19,0,0,1,0,.15h0V242h0v0c.14.16-.56.08-.37,0v0l0-.1s0-.07,0-.12a4.35,4.35,0,0,0,0-.51c0-.17,0-.32,0-.5v-.14a.15.15,0,0,1,.08-.15.2.2,0,0,1,.19,0,.23.23,0,0,1,.07.07c0,.07,0,.07,0,.07v.1s0,0,0,.06a.14.14,0,0,1,0,.07.22.22,0,0,1-.1.08.19.19,0,0,1-.22-.1,1.86,1.86,0,0,1-.06-.29,9,9,0,0,0-.25-.89l.31-.12,0,.06,0,0v.05h0v0s0,.13-.14.18-.12,0-.14,0l0,0-.09-.16-.15-.28c-.1-.18-.21-.33-.31-.49l.26-.18.05.07,0,0h0a.17.17,0,0,1,0,.15c-.17.2-.29,0-.25,0l0,0-.1-.12a1.9,1.9,0,0,0-.19-.21c-.13-.13-.26-.26-.4-.38l.2-.2.07.05,0,0h0l0,0c-.32.44-.13.1-.19.21h0l0,0-.17-.11-.32-.2a3.89,3.89,0,0,0-.62-.35l.11-.22.1,0h.06l0,0s.07.15,0,.19l-.06,0h-.05l-.06,0-.22-.07a2.32,2.32,0,0,0-.4-.13l-.37-.1-.18,0h0c.08,0-.16.1,0-.19h.16v.18l-.87,0h-.34s-.05,0-.05-.09l0,0h0l.16,0h0s0-.05.06.06,0,0-.05,0h-.1a2.52,2.52,0,0,1-.5.07,2.1,2.1,0,0,1,.49-.17h.09s0,0,0,0,.06.05,0,.06h0l-.14,0h0s0,0,0,0,0,0,0,0,0,0,0-.06,0,0,0,0h1.21v.18h-.15s0,0,0,0c.16-.29-.08-.16,0-.19h0l.19,0,.39.08.42.12.22.07h.05c-.08.32-.09.2-.1.21l-.13,0,.11-.22a3.63,3.63,0,0,1,.64.34l.34.2.18.11h0l-.06.11s.05-.1-.06,0,0,0,0,.05l0,0,0,0-.11-.08.2-.2a4.42,4.42,0,0,1,.41.37,2.28,2.28,0,0,1,.22.22l.1.12h0s-.07.06-.09.06,0,0,0,0,0,0,0,0,0,0,0,.06l-.06,0h0l0,0-.05-.06.26-.18c.11.16.23.33.33.5l.16.28c0,.05.09.08,0,.15a.34.34,0,0,0-.09.08l-.11,0-.05,0v0l0,0,0-.1.31-.12a6.59,6.59,0,0,1,.29.95l0,.12v.1h0s0,0-.11,0-.06,0-.07,0,0,0,0,0a.12.12,0,0,0-.1,0l-.08,0h0v-.06h0c.05,0,.07,0,.11,0a.12.12,0,0,0,.07,0s.06,0,.07,0h.11v.09a4.71,4.71,0,0,1,0,.53,4.87,4.87,0,0,1,0,.54s0,.11,0,.14v0h0a.89.89,0,0,0-.16,0l-.22,0h0v-.1h0l.07,0s.13,0,.11,0c.29,0,.17,0,.2,0v0l0,.13a5.47,5.47,0,0,1-.13.55,2.29,2.29,0,0,1-.09.28L456,243c-.52-.21-.33-.15-.35-.18l0-.07.37.18c-.21.35-.38.74-.64,1.1l-.34-.25.1-.11s0,0,.08.05.08.05.11.1l.05.07s.08.09.06.07h0l0,0,0,.05-.2.2a2.72,2.72,0,0,1-.43.4l0,0,0,0c-.09-.08-.1-.15-.13-.13s0-.05,0-.07l-.07-.12h0l.05,0h0s.07.08,0,.09,0,.12.05.12.05-.07,0,0a.14.14,0,0,0,.08.13l0,0h0l-.06,0a2.26,2.26,0,0,1-.26.16l-.54.3-.2-.4.09,0,0,0h.06s0,0,.07,0,.24.49.13.39l-.06,0-.06,0-.21.08-.41.11-.41.11-.2,0s0,.11-.07-.2c0,0,0-.27,0-.24h.06l.12,0,0,.46a7.2,7.2,0,0,1-.81,0,3,3,0,0,1-.42,0h-.14s0,0,0,0a1.84,1.84,0,0,1,0-.23c0-.06,0-.14,0-.2h.15v0c0,.06,0,.11,0,.12a.13.13,0,0,0-.05.08s0,0,0,0,0,.07,0,.11a.24.24,0,0,1,0,.11h0a4.36,4.36,0,0,1-.81-.2l-.21-.06-.11,0,0,0h0l0-.08a.63.63,0,0,0,0-.14c.18-.35.09-.19.12-.23h0l.09,0h0s0,0,0,.07,0,.15-.06.18l-.11.19h0l0,0-.09,0,0,0h0s0,0,.14,0a.25.25,0,0,0,.17-.13.11.11,0,0,0,0-.07s0,0-.18-.05l-.17.22a1.66,1.66,0,0,0-2,.32,1.71,1.71,0,0,0,0,2.09,3,3,0,0,0,1.05.59,9.11,9.11,0,0,0,1.26.37,7.65,7.65,0,0,0,2.66.08,7.25,7.25,0,0,0,5-3,7.71,7.71,0,0,0,1.28-5.32,7,7,0,0,0-2.26-4.4,7.62,7.62,0,0,0-3.93-1.93,6.81,6.81,0,0,0-3.58.3,1.74,1.74,0,0,0-.84,1.11,1.56,1.56,0,0,0,.18,1.17,1.82,1.82,0,0,0,1.36.93A4.71,4.71,0,0,0,451,237.44Z" style="fill:#263238"></path><polygon points="457.67 256.14 447.57 256.8 430.38 256.8 418.96 256.14 418.96 253.15 457.67 253.15 457.67 256.14" style="fill:#e0e0e0"></polygon><path d="M457.67,256.14a4.6,4.6,0,0,1,0-.79c0-.54,0-1.27-.06-2.2l.1.09c-6.05.1-21.11.17-38.71.17l.26-.26h0v3l-.25-.26,7.88.47,3.72.21h3.58l12.29.05a21.86,21.86,0,0,0,2.47-.07l2.19-.12,3.51-.17,2.25-.1c.52,0,.79,0,.81,0a6.24,6.24,0,0,1-.74.09l-2.21.19-3.54.28-2.23.17a25,25,0,0,1-2.5.11l-12.31.06h-3.58c-1.22-.05-2.46-.13-3.73-.2l-7.89-.45h-.24v-3.23h0v-.27H419c17.6,0,32.66.07,38.71.17h.1v.1c0,.95,0,1.7-.05,2.26A7.23,7.23,0,0,1,457.67,256.14Z" style="fill:#263238"></path></g><g id="freepik--mug-1--inject-8"><path d="M313.52,228.85h30.26l-2.26,16.65s-2,8.19-6.58,8.19H321.83s-5.3-3-6.38-9Z" style="fill:#e0e0e0"></path><path d="M313.52,228.85a4.79,4.79,0,0,1,.09.53c.05.37.12.87.21,1.48.18,1.33.43,3.2.75,5.55s.69,5.22,1.12,8.48a13.62,13.62,0,0,0,6.25,8.6l-.11,0,10.48,0c.92,0,1.87,0,2.79,0a3.91,3.91,0,0,0,2.43-1,12.07,12.07,0,0,0,3-4.81,22.24,22.24,0,0,0,.7-2.14v0l2.29-16.64.23.27L322.07,229l-6.27-.06-1.68,0-.6,0a2.93,2.93,0,0,1,.54,0l1.63,0,6.21-.07,21.88-.12h.28l0,.27c-.69,5.16-1.45,10.77-2.24,16.65v0h0a18.8,18.8,0,0,1-.71,2.2,12.44,12.44,0,0,1-3.19,5,4.39,4.39,0,0,1-2.74,1.15c-1,0-1.89,0-2.82,0l-10.48,0h-.07l-.05,0a14,14,0,0,1-6.4-8.94c-.44-3.33-.73-6.25-1-8.64s-.46-4.22-.6-5.54c-.06-.6-.11-1.08-.15-1.45A2.93,2.93,0,0,1,313.52,228.85Z" style="fill:#263238"></path><path d="M341.51,237.44l.44-.11s.29-.05.06,0,.07,0,.13,0a8.18,8.18,0,0,1,1,0c-.33,0-.05,0,.11,0l.52.13.43.15c.2,0-.06,0-.08,0l.27.13a7.82,7.82,0,0,1,.84.51c.18.12-.05,0-.06-.05l.17.15a4.31,4.31,0,0,1,.37.37c.1.1.29.35.11.1.1.14.2.29.29.44s.14.28.22.42,0-.06,0-.09.07.2.1.29a5.26,5.26,0,0,1,.15.53c0,.07.09.5.06.29s0,.22,0,.29a5,5,0,0,1,0,.55c0,.1,0,.2,0,.31s0,.29,0,.06-.05.23-.07.29a3,3,0,0,1-.12.45c0,.12-.21.54-.06.22a6.34,6.34,0,0,1-.49.88l-.14.19s.19-.21,0-.07-.28.3-.43.44-.38.3-.22.2-.2.12-.26.15l-.39.23-.21.1c.23-.12.12-.05-.05,0a9.22,9.22,0,0,1-1,.28c-.2.05.08,0,.11,0l-.3,0h-.61l-.23,0s-.37,0-.13,0,0,0-.06,0l-.3-.06-.58-.17s-.26-.11-.06,0-.2-.1-.2-.1A1.82,1.82,0,0,0,339,248a7.83,7.83,0,0,0,10.24-2.8,8.16,8.16,0,0,0,.86-5.75,7.43,7.43,0,0,0-3.33-4.62,7.84,7.84,0,0,0-6.21-.94,1.83,1.83,0,1,0,1,3.52Z" style="fill:#e0e0e0"></path><path d="M341.51,237.44a1.25,1.25,0,0,1-.63.11A1.92,1.92,0,0,1,340,234a4.78,4.78,0,0,1,1.77-.46,8.11,8.11,0,0,1,2,0,7.89,7.89,0,0,1,4.16,2,7.43,7.43,0,0,1,2.45,4.67,8.11,8.11,0,0,1-1.34,5.66,7.73,7.73,0,0,1-5.35,3.2,8.39,8.39,0,0,1-2.83-.09,10.47,10.47,0,0,1-1.35-.4l-.63-.28a1.89,1.89,0,0,1-.61-.46,2.08,2.08,0,0,1,2.61-3.18l-.36.22a.25.25,0,0,1,.21-.24c.15,0,.15,0,.14,0H341l0,0,.1,0,.05,0,0,0,0,0c0-.13.19.38-.11.43H341l-.1,0h-.05l-.08-.06c-.12-.54.38-.39.23-.4l.06,0,0,0,.08,0,.19.06a5.15,5.15,0,0,0,.75.19h0s-.05,0,.14.07a.25.25,0,0,1,.07.22.26.26,0,0,1-.21.19H342l-.11,0h0l-.07,0-.05,0s-.13-.07-.06-.29.17-.12.19-.13h.22l.38,0a6.52,6.52,0,0,0,.76,0l0,.46-.08,0h-.12a.19.19,0,0,1-.16-.06.25.25,0,0,1-.06-.26c.05-.09,0-.06.06-.08s.08,0,.1-.06h0l.21-.06.39-.1.39-.1.18-.06,0,0,0,0c-.1-.09-.06.45.13.39h.09l-.08,0-.21-.4c.19-.09.35-.18.52-.28l.24-.15.07,0,0,0h0a.23.23,0,0,1,.14,0,.25.25,0,0,1,.13.07.25.25,0,0,1,0,.3l0,0-.07.05h0a.22.22,0,0,1-.14,0,.25.25,0,0,1-.18-.14c-.07-.12.09-.29.06-.24h0l0,0a2.93,2.93,0,0,0,.41-.38l.2-.2.05-.05,0,0,.05,0h0s.23,0,.28.14,0,.11,0,.14h0l0,0v0l-.09.09-.34-.25a11.11,11.11,0,0,0,.61-1l.37.18,0,.06,0,0,0,.05,0,0s0,.05-.16.06-.18-.23-.18-.23v-.05l0-.14a1.52,1.52,0,0,0,.09-.25,4.94,4.94,0,0,0,.13-.52l0-.14v0h0s0,0,.07-.11a.21.21,0,0,1,.2,0,.23.23,0,0,1,.07.06.21.21,0,0,1,0,.15h0l0,.07V242h0v0c.14.16-.56.08-.37,0v-.12a.49.49,0,0,0,0-.12,2.9,2.9,0,0,0,0-.51,2.8,2.8,0,0,0,0-.5v-.14a.15.15,0,0,1,.09-.15.21.21,0,0,1,.19,0,.2.2,0,0,1,.06.07c0,.07,0,.07,0,.07v.16l0,.07s0,0-.1.08-.22-.07-.21-.1,0-.19-.07-.29a5.61,5.61,0,0,0-.25-.89l.32-.12,0,.06,0,0v.05h0v0a.17.17,0,0,1-.14.18c-.13,0-.13,0-.14,0l0,0-.09-.16-.14-.28c-.1-.18-.21-.33-.31-.49l.25-.18.05.07,0,0h0a.15.15,0,0,1,0,.15c-.17.2-.29,0-.26,0l0,0-.09-.12a2,2,0,0,0-.2-.21c-.13-.13-.25-.26-.39-.38l.19-.2.07.05.05,0h0s0,0,0,0c-.32.44-.13.1-.18.21h0l0,0-.17-.11-.33-.2a4.3,4.3,0,0,0-.61-.35l.1-.22.1,0h.06l0,0s.06.15,0,.19l-.06,0h0l-.07,0-.21-.07a2.41,2.41,0,0,0-.41-.13l-.37-.1-.17,0h0c.09,0-.16.1,0-.19h.16v.18l-.87,0h-.33s-.06,0-.05-.09,0,0,0,0h0l.15,0h0s0-.05,0,.06,0,0,0,0H342a2.71,2.71,0,0,1-.5.07s.15-.07.48-.17h.1l0,0c0,.1.06.05,0,.06h0l-.15,0h0s0,0,0,0,0,0,0,0,0,0,0-.06h1.21v.18H343s0,0,0,0c.15-.29-.09-.16,0-.19h0l.19,0,.4.08.41.12.22.07h0c-.08.32-.08.2-.1.21l-.12,0,.1-.22a3.63,3.63,0,0,1,.64.34l.35.2.18.11h0l-.06.11s.06-.1-.05,0,0,0,0,.05l0,0,0,0-.1-.08.19-.2a3.42,3.42,0,0,1,.41.37,2.28,2.28,0,0,1,.22.22l.1.12h0s-.07.06-.09.06a.05.05,0,0,0,0,0s0,0,0,0,0,0-.05.06l-.06,0h0l0,0,0-.06.25-.18.34.5.15.28c0,.05.09.08,0,.15a.39.39,0,0,0-.1.08l-.11,0-.05,0v0l0,0,0-.1.32-.12a8.15,8.15,0,0,1,.29.95l0,.12v.1h0s0,0-.11,0-.06,0-.07,0,0,0,0,0a.1.1,0,0,0-.09,0l-.08,0h0v-.06h0c.05,0,.07,0,.1,0a.09.09,0,0,0,.07,0s.07,0,.08,0h.11v.09a3.14,3.14,0,0,1,0,.53,4.87,4.87,0,0,1,0,.54.59.59,0,0,1,0,.14v0h0a.62.62,0,0,0-.15,0l-.23,0h0v-.1h0l.07,0s.13,0,.11,0c.3,0,.18,0,.2,0v0l0,.13a5.54,5.54,0,0,1-.14.55,2.29,2.29,0,0,1-.09.28l0,.12c-.52-.21-.33-.15-.36-.18l0-.07.37.18a9.74,9.74,0,0,1-.64,1.1l-.33-.25.09-.11s0,0,.08.05.08.05.11.1l.05.07s.08.09.06.07h0l0,0-.05.05-.2.2a2.65,2.65,0,0,1-.42.4l0,0,0,0c-.09-.08-.1-.15-.13-.13s0-.05,0-.07l-.07-.12h0l0,0h0s.07.08,0,.09,0,.12.06.12,0-.07,0,0a.16.16,0,0,0,.08.13l0,0h0l-.06,0a1.64,1.64,0,0,1-.26.16,5.54,5.54,0,0,1-.53.3l-.21-.4.1,0,0,0h0s0,0,.08,0,.23.49.13.39l-.07,0-.06,0-.21.08-.4.11-.41.11-.2,0s0,.11-.08-.2c0,0,0-.27,0-.24h.05l.13,0,0,.46a7.09,7.09,0,0,1-.81,0,2.81,2.81,0,0,1-.41,0h-.15s0,0,0,0a.86.86,0,0,1,0-.23c0-.06,0-.14,0-.2h.15v0c0,.06,0,.11,0,.12a.1.1,0,0,0,0,.08s0,0,0,0,0,.07,0,.11a.24.24,0,0,1,0,.11h0a4.46,4.46,0,0,1-.82-.2l-.2-.06-.11,0-.05,0h0l0-.08.05-.14c.18-.35.09-.19.11-.23h0l.09,0h0s0,0,0,.07,0,.15-.06.18l-.11.19h0l-.05,0-.09,0-.05,0h0s0,0,.14,0A.27.27,0,0,0,341,245a.19.19,0,0,0,0-.07s0,0-.18-.05l-.17.22a1.67,1.67,0,0,0-2,.32,1.7,1.7,0,0,0,0,2.09,3,3,0,0,0,1,.59,9.11,9.11,0,0,0,1.26.37,7.65,7.65,0,0,0,2.66.08,7.25,7.25,0,0,0,5-3,7.61,7.61,0,0,0,1.28-5.32,6.94,6.94,0,0,0-2.26-4.4,7.59,7.59,0,0,0-3.92-1.93,6.84,6.84,0,0,0-3.59.3,1.81,1.81,0,0,0-.84,1.11,1.6,1.6,0,0,0,.18,1.17,1.84,1.84,0,0,0,1.36.93A5,5,0,0,0,341.51,237.44Z" style="fill:#263238"></path><polygon points="348.2 256.14 338.1 256.8 320.91 256.8 309.49 256.14 309.49 253.15 348.2 253.15 348.2 256.14" style="fill:#e0e0e0"></polygon><path d="M348.2,256.14s0-.28,0-.79,0-1.27-.06-2.2l.1.09c-6,.1-21.1.17-38.71.17l.26-.26h0v3l-.24-.26,7.87.47,3.73.21h3.57l12.29.05a21.86,21.86,0,0,0,2.47-.07l2.19-.12,3.52-.17,2.24-.1c.52,0,.8,0,.81,0a6.24,6.24,0,0,1-.74.09l-2.2.19-3.55.28-2.23.17c-.79.07-1.63.12-2.49.11l-12.32.06h-3.58c-1.21-.05-2.46-.13-3.73-.2l-7.88-.45h-.25v-3.23h0v-.27h.26c17.61,0,32.67.07,38.71.17h.1v.1c0,.95,0,1.7-.06,2.26A4.65,4.65,0,0,1,348.2,256.14Z" style="fill:#263238"></path></g><g id="freepik--Books--inject-8"><rect x="235.37" y="247.74" width="75.92" height="8.27" style="fill:#625EFF"></rect></g><g id="freepik--character-2--inject-8"><path d="M628,106.08a7.08,7.08,0,0,1,5.92-2.21,4.16,4.16,0,0,0,2.62-.13,5.57,5.57,0,0,0,1.22-1.45,3.62,3.62,0,0,1,5.19-.22,4.25,4.25,0,0,0,1,1c1.74.87,3.59-2.39,5.32-1.49a4.08,4.08,0,0,0-1.89,1.53,1.86,1.86,0,0,0,.24,2.28c1.63,1.39,4.23-1.82,6.05-.67,1,.62,1.13,2.26,2.26,2.52a4.32,4.32,0,0,0,1.33-.12,3,3,0,0,1,3.19,2.5c.15,1.28-.47,2.85.5,3.69a2.76,2.76,0,0,0,2.28.29,7.7,7.7,0,0,1-.78,3.4,4.64,4.64,0,0,1,1.65,6.23,10,10,0,0,1,2.72,2.7,3.48,3.48,0,0,1,.08,3.66,3.18,3.18,0,0,0-.48.73,1.87,1.87,0,0,0,0,.94,15.36,15.36,0,0,1,.79,3.56c0,1.22-.9,2.58-2.12,2.49-.29,0-.6-.11-.84.05a.78.78,0,0,0-.28.56,8.26,8.26,0,0,0,.21,2.61,3.5,3.5,0,0,1-.35,2.55,1.5,1.5,0,0,1-2.26.3l1.11,4.07c.21.8.39,1.78-.19,2.38-.75.78-2.16.19-2.75-.72s-.78-2.06-1.4-3a7,7,0,0,1-.76-1.11c-.13-.32-.18-.71-.46-.93-.55-.45-1.38.33-1.3,1a3.72,3.72,0,0,0,1.11,1.77c.45.55.83,1.33.47,1.94-.17.3-.48.5-.64.8-.57,1,1,2,1.16,3.2a2.85,2.85,0,0,1-1.08,2.28c-.75.76-2.21,1.4-2.7.45a9.91,9.91,0,0,1-.24-1.08,2.75,2.75,0,0,0-.86-1,5.52,5.52,0,0,1-1.69-2.71c.92,1.1,1.89,2.56,1.27,3.85a6,6,0,0,1-1.16,1.36c-.8.86-1.29,2-2.08,2.83a2.75,2.75,0,0,1-3.14.92,2.64,2.64,0,0,1-4.39,2.69,2.21,2.21,0,0,0-.73-.63,2,2,0,0,0-1,0,5.71,5.71,0,0,1-5.56-2.13l1-.39a13.31,13.31,0,0,1-6-1.65c-1.73-1.15-2.88-3.48-2-5.37.37-.82,1.1-1.66.75-2.49a2.21,2.21,0,0,0-1.48-1l-7.39-2.48a6.9,6.9,0,0,1-3.27-1.81c-.8-1-.9-2.65.14-3.36a6.72,6.72,0,0,0-2.59-2.72c-1.23-.72-2.66-1-3.93-1.68a3.86,3.86,0,0,1-2.35-3.29c.06-1.43,2-2.56,3-1.54-.23-2.14-4-2.21-4.41-4.34-.29-1.72,1.9-2.65,3-4-.24-.59-.86-1-1.12-1.56-.54-1.23.73-2.5,1.94-3.1s2.69-1.21,3-2.53-.9-2.86-.2-4a1.53,1.53,0,0,1,2-.53c1-2.48,5.63-.69,7-3a1,1,0,0,0,.15-.6,1,1,0,0,0-.25-.48,10.61,10.61,0,0,0-2.07-1.54,2.09,2.09,0,0,1-1-2.21c.3-.81,1.83-.8,1.82.06a1.9,1.9,0,0,1,2.92.69,2.06,2.06,0,0,1,2.56-.28,5.92,5.92,0,0,1,1.87,2.07" style="fill:#263238"></path><path d="M640.12,133.2c-.9-3.51-3.62-6.29-6.59-8.37a9.28,9.28,0,0,0-4.12-1.86,3.88,3.88,0,0,0-3.91,1.76l.3,2.53c-.17,4,3.08,7.31,4.7,11,.71,1.61,1.31,3.56,3,4.19a3.76,3.76,0,0,0,2.7-.13C639.53,141,641,136.72,640.12,133.2Z" style="fill:#455a64"></path><path d="M641.2,151.82a8.13,8.13,0,0,0-1.27-10.33c1.38-1.93.7-4.78-.91-6.54s-3.89-2.69-6.1-3.58a10.92,10.92,0,0,0-13.14-7.28c-3-4-9.08-4.33-13.82-2.67a12.68,12.68,0,0,1-3.54,1,20.18,20.18,0,0,1-2.68-.22c-4.94-.4-9.61,3.31-11.28,8a9.29,9.29,0,0,1-.93,2.17,12.1,12.1,0,0,1-2.32,2.07,7.81,7.81,0,0,0-2.68,5.94c0,1.91.73,3.89,0,5.66-.35.89-1,1.63-1.31,2.55-.76,2.66,2.28,5.18,1.88,7.92-.08.56-.3,1.09-.42,1.64a4.85,4.85,0,0,0,.47,3.36,6.87,6.87,0,0,1,1.19,2.37,7.67,7.67,0,0,1-.29,2c-.24,1.63,3.59,7.69,5,8.5L631,172.46a7.83,7.83,0,0,0,5.69-7.05,2.83,2.83,0,0,1,.3-1.56,3.47,3.47,0,0,1,1.11-.8c2.61-1.59,2.74-5.3,2.29-8.33a3.68,3.68,0,0,1,0-1.28A4.63,4.63,0,0,1,641.2,151.82Z" style="fill:#263238"></path><path d="M629.29,152.52c-.28-7.41-5.37-15.67-12.92-18.9-4.75-2-8.37-1.85-10.82-2a17,17,0,0,0-9.76,2.6c-2.27.66-10.31,8.85-10.3,17.26,0,9.36.39,20.77,1.94,27.65C590.55,193,601.37,194,601.37,194s-.35,9.77-.35,9.77l30.06-2.23Z" style="fill:#ae7461"></path><path d="M608.19,175.69a2.92,2.92,0,0,0-1-1.81,3,3,0,0,0-3.66-.18,4.06,4.06,0,0,0-1.5,3.81h0a3.7,3.7,0,0,0,2.64,1.5h.5a3.31,3.31,0,0,0,2.21-.9A2.92,2.92,0,0,0,608.19,175.69Z" style="fill:#6f4439"></path><path d="M589.25,162.33a1.8,1.8,0,0,0,1.84,1.7,1.73,1.73,0,0,0,1.75-1.73,1.8,1.8,0,0,0-1.84-1.7A1.71,1.71,0,0,0,589.25,162.33Z" style="fill:#263238"></path><path d="M589,156.63c.24.22,1.53-.87,3.46-1s3.4.76,3.6.51-.16-.52-.8-.93a4.87,4.87,0,0,0-2.9-.69,4.72,4.72,0,0,0-2.74,1.08C589,156.1,588.86,156.54,589,156.63Z" style="fill:#263238"></path><path d="M601.24,171.14a13,13,0,0,0-3.17-.37c-.49,0-1-.08-1.07-.41a2.5,2.5,0,0,1,.23-1.48c.39-1.23.79-2.51,1.22-3.85,1.68-5.47,2.86-9.95,2.64-10s-1.76,4.31-3.44,9.78c-.4,1.34-.79,2.63-1.15,3.86a2.91,2.91,0,0,0-.14,2,1.23,1.23,0,0,0,.86.66,3.24,3.24,0,0,0,.84.07A12.54,12.54,0,0,0,601.24,171.14Z" style="fill:#263238"></path><path d="M601.37,194a35.54,35.54,0,0,0,18.39-6.19s-4.44,10-18.51,9.63Z" style="fill:#6f4439"></path><path d="M607,172.11c-.31,0-.19,2.09-1.88,3.69s-3.94,1.52-3.94,1.81c0,.13.52.38,1.47.34a5.24,5.24,0,0,0,3.29-1.39,4.5,4.5,0,0,0,1.44-3.09C607.41,172.59,607.14,172.09,607,172.11Z" style="fill:#263238"></path><path d="M589.3,149.36c.35.45,1.81,0,3.54.07s3.2.4,3.55-.05c.15-.22-.06-.67-.69-1.1a5.14,5.14,0,0,0-2.86-.81,5.23,5.23,0,0,0-2.86.79C589.36,148.69,589.14,149.14,589.3,149.36Z" style="fill:#263238"></path><path d="M610.07,161.71a1.79,1.79,0,0,1-1.68,1.85A1.72,1.72,0,0,1,606.5,162a1.79,1.79,0,0,1,1.68-1.86A1.71,1.71,0,0,1,610.07,161.71Z" style="fill:#263238"></path><path d="M615.41,155.7c-.21.24-1.6-.73-3.53-.67s-3.32,1.06-3.54.82.11-.53.72-1a4.88,4.88,0,0,1,2.82-1,4.82,4.82,0,0,1,2.82.83C615.31,155.17,615.52,155.59,615.41,155.7Z" style="fill:#263238"></path><path d="M615.55,149.2c-.37.45-1.88,0-3.67.06s-3.3.38-3.66-.07c-.16-.22.07-.66.72-1.1a5.52,5.52,0,0,1,3-.79,5.44,5.44,0,0,1,2.94.8C615.49,148.53,615.71,149,615.55,149.2Z" style="fill:#263238"></path><path d="M627.82,165.9c-.06-1,1-3.57,2-3.79,2.72-.61,7.68-.7,8.17,6.26.67,9.53-9,8.24-9.06,8S628,169.5,627.82,165.9Z" style="fill:#ae7461"></path><path d="M631.31,172.67s.17.11.46.21a1.64,1.64,0,0,0,1.24-.06c1-.44,1.72-2.09,1.64-3.81a5.35,5.35,0,0,0-.63-2.35,1.91,1.91,0,0,0-1.34-1.18.84.84,0,0,0-.94.52c-.11.28,0,.46-.09.48s-.21-.14-.16-.54a1,1,0,0,1,.33-.62,1.18,1.18,0,0,1,.9-.31,2.36,2.36,0,0,1,1.84,1.35,5.66,5.66,0,0,1,.76,2.62c.07,1.92-.78,3.78-2.13,4.28a1.78,1.78,0,0,1-1.54-.15C631.34,172.9,631.28,172.69,631.31,172.67Z" style="fill:#6f4439"></path><path d="M583.32,151.74c1.85-1.32,3-3,2.71-5.3,1.3.3,2.5-1.42,3.17-2.57s1.55-1.77,1.41-3.1a1.47,1.47,0,0,1,0-.78c.17-.38.61-.52,1-.67a6.39,6.39,0,0,0,3.92-4.7,13.59,13.59,0,0,0,6.6.66,5.18,5.18,0,0,0,8.71-.93,4.61,4.61,0,0,0,3.24,2.08,13.48,13.48,0,0,0,4,0,5.48,5.48,0,0,0,4,6,1.31,1.31,0,0,1,.92.47,1.39,1.39,0,0,1-.08,1.07,4.31,4.31,0,0,0,3.23,5.29,3.21,3.21,0,0,0,.61,5c.36.18.82.41.8.81a.85.85,0,0,1-.19.42,6.24,6.24,0,0,0-1.3,3.24,2.3,2.3,0,0,0,2,2.43,3,3,0,0,0-1.08,2.17c0,.83.93,1.62,1.68,1.27.32-.15,5-1.38,5.2-1.68,2.46-3.83-1.18-7.66-1.74-12.18a29.53,29.53,0,0,0-4.93-12.61,21.71,21.71,0,0,0-3.68-4.37,28.32,28.32,0,0,0-5.48-3.53,26.52,26.52,0,0,0-7.87-3.16c-5.22-.89-10.44,1.32-15.1,3.84a22.31,22.31,0,0,0-5,3.38,20.18,20.18,0,0,0-4,6,25.3,25.3,0,0,0-2.83,10" style="fill:#263238"></path><path d="M581.24,148.53a3.67,3.67,0,0,1,.45-1.06c.19-.33.45-.71.69-1.2a4.6,4.6,0,0,0,.42-1.82,13.55,13.55,0,0,0-.19-2.35,10.49,10.49,0,0,1-.1-2.83,7.94,7.94,0,0,1,1.07-3.08,7.67,7.67,0,0,1,1.09-1.42,12.09,12.09,0,0,1,1.43-1.22,5.81,5.81,0,0,0,1.37-1.34,7.7,7.7,0,0,0,.79-1.85,12.89,12.89,0,0,1,5.6-6.89,11.62,11.62,0,0,1,2.24-1,10.83,10.83,0,0,1,2.49-.44,11.11,11.11,0,0,1,1.29,0c.43,0,.86.1,1.28.15a6.28,6.28,0,0,0,2.55-.16c.84-.22,1.66-.58,2.52-.85a16.9,16.9,0,0,1,2.68-.65,17.21,17.21,0,0,1,2.79-.2,14.22,14.22,0,0,1,2.82.35,9.39,9.39,0,0,1,5,2.86l.38.45-.16,0a10.73,10.73,0,0,1,8.31,1.15,10.6,10.6,0,0,1,5,6.24l-.08-.09a30.7,30.7,0,0,1,3.45,1.55,10.2,10.2,0,0,1,2.88,2.27,6.62,6.62,0,0,1,1.44,3.22,4.49,4.49,0,0,1-.71,3.27l0-.15a8,8,0,0,1,2.5,4.75,8.19,8.19,0,0,1-.7,4.8,8.71,8.71,0,0,1-.58,1c-.21.3-.43.59-.6.89a1.94,1.94,0,0,0-.28,1,5.33,5.33,0,0,0,.09,1,16.13,16.13,0,0,1,.12,3.63,7.75,7.75,0,0,1-.77,2.81,4.61,4.61,0,0,1-1.39,1.63c-.47.36-.9.51-1.13.7a2.73,2.73,0,0,0-.33.31,1.25,1.25,0,0,1,.31-.34c.23-.2.66-.37,1.11-.72a4.72,4.72,0,0,0,1.34-1.63,7.8,7.8,0,0,0,.72-2.78,15.81,15.81,0,0,0-.15-3.58,5.6,5.6,0,0,1-.1-1,2.27,2.27,0,0,1,.3-1c.18-.32.4-.61.61-.91a7.48,7.48,0,0,0,.55-1,7.86,7.86,0,0,0,.66-4.68,7.7,7.7,0,0,0-2.44-4.61l-.08-.07.06-.08a4.26,4.26,0,0,0,.66-3.11,6.34,6.34,0,0,0-1.39-3.08,10,10,0,0,0-2.81-2.2,30.36,30.36,0,0,0-3.42-1.54l-.07,0v-.07a10.81,10.81,0,0,0-13-7.18l-.09,0-.07-.07-.37-.44a9.13,9.13,0,0,0-4.84-2.77,13.71,13.71,0,0,0-2.77-.34,16.45,16.45,0,0,0-5.37.82c-.85.27-1.67.63-2.54.86a7.39,7.39,0,0,1-1.33.22,8.23,8.23,0,0,1-1.32-.06c-.43,0-.86-.12-1.28-.16a10.43,10.43,0,0,0-1.25,0,9.82,9.82,0,0,0-2.42.42,11.08,11.08,0,0,0-2.19,1,12.24,12.24,0,0,0-3.46,3,12.52,12.52,0,0,0-2.06,3.76,7.57,7.57,0,0,1-.82,1.89,5.83,5.83,0,0,1-1.43,1.38,13,13,0,0,0-1.42,1.19,8.12,8.12,0,0,0-1.07,1.38,7.72,7.72,0,0,0-1.06,3,10.28,10.28,0,0,0,.08,2.79,14.55,14.55,0,0,1,.16,2.38,4.42,4.42,0,0,1-.46,1.85c-.25.49-.52.87-.71,1.19a7,7,0,0,0-.39.76A2.6,2.6,0,0,1,581.24,148.53Z" style="fill:#455a64"></path><path d="M615.18,122.27s-.26-.13-.74-.33a6.52,6.52,0,0,0-2.11-.48,6.11,6.11,0,0,0-3.1.65,6.27,6.27,0,0,0-2.7,2.76,5.29,5.29,0,0,0-.4,1.11,1.18,1.18,0,0,0,.13,1l.25.3-.39-.08a4,4,0,0,0-2.93.53,3.82,3.82,0,0,0-1.5,1.86,4.15,4.15,0,0,0-.28,1.6c0,.38.05.59,0,.59s0-.05-.05-.15a2.19,2.19,0,0,1-.08-.44,4,4,0,0,1,.21-1.66,3.91,3.91,0,0,1,1.54-2,4.16,4.16,0,0,1,3.12-.6l-.14.22a1.43,1.43,0,0,1-.19-1.23,5.06,5.06,0,0,1,.43-1.18,6.32,6.32,0,0,1,2.83-2.86,6.14,6.14,0,0,1,5.38,0,5,5,0,0,1,.53.3C615.13,122.22,615.19,122.26,615.18,122.27Z" style="fill:#455a64"></path><path d="M631.31,132.26s-.09.15-.31.36a5.71,5.71,0,0,1-1,.82,4.62,4.62,0,0,1-1.87.68,3.34,3.34,0,0,1-2.41-.57l.21,0-.25.41-.3.39a6,6,0,0,1-4.55,2.05,5.23,5.23,0,0,1-1.52-.25,1.84,1.84,0,0,1-.51-.23,8.38,8.38,0,0,0,2,.28,6,6,0,0,0,2.16-.47,5.7,5.7,0,0,0,2.16-1.56c.1-.13.2-.25.29-.38l.24-.38.09-.14.12.09a3.2,3.2,0,0,0,2.22.55,4.5,4.5,0,0,0,1.79-.6C630.81,132.72,631.28,132.22,631.31,132.26Z" style="fill:#455a64"></path><path d="M636.89,140.79s0,.06,0,.18a1.57,1.57,0,0,1-.19.47,2.52,2.52,0,0,1-1.47,1.12,4.91,4.91,0,0,1-2.74-.13c-.49-.15-1-.29-1.54-.5a2.65,2.65,0,0,1-1.39-1.12l-.07-.15.23.05a10.59,10.59,0,0,1-2.72,1.87,4.86,4.86,0,0,1-2.66.44,3.39,3.39,0,0,1-1.69-.65,1.58,1.58,0,0,1-.37-.33c-.07-.08-.11-.13-.1-.14s.18.16.53.38a3.66,3.66,0,0,0,1.65.54,4.74,4.74,0,0,0,2.53-.48,11.18,11.18,0,0,0,2.64-1.84l.15-.13.08.18.06.13a2.39,2.39,0,0,0,1.24,1c.5.2,1,.35,1.5.5a4.81,4.81,0,0,0,2.61.19,2.52,2.52,0,0,0,1.44-1A3.77,3.77,0,0,0,636.89,140.79Z" style="fill:#455a64"></path><path d="M645,106.14s-.17,0-.45.11a2.17,2.17,0,0,0-1,.75,3,3,0,0,0-.61,1.86,8.75,8.75,0,0,0,.52,2.58l0,.15h-.16a5.41,5.41,0,0,0-3.24,1.21,4.23,4.23,0,0,0-1.6,3.44,3.91,3.91,0,0,0,1.58,3.09l.34.23-.41,0a4.86,4.86,0,0,0-3.51,1.81,4.66,4.66,0,0,0-1,3,5,5,0,0,0,.45,2.08c.21.46.37.68.35.7a.74.74,0,0,1-.13-.16,3.26,3.26,0,0,1-.31-.5,5,5,0,0,1-.54-2.12,4.85,4.85,0,0,1,1-3.15,5.1,5.1,0,0,1,3.69-1.94l-.07.25a4.18,4.18,0,0,1-1.72-3.31,4.33,4.33,0,0,1,.44-2.08,4.78,4.78,0,0,1,1.28-1.59,5.65,5.65,0,0,1,3.4-1.24l-.11.16a8.56,8.56,0,0,1-.48-2.65,3,3,0,0,1,.69-2,2.12,2.12,0,0,1,1.11-.73,1.37,1.37,0,0,1,.35-.05C645,106.13,645,106.13,645,106.14Z" style="fill:#455a64"></path><path d="M663.28,125.74s0,0-.15.1a3.41,3.41,0,0,1-.46.25,6.88,6.88,0,0,1-1.89.55,7.6,7.6,0,0,1-3-.17,7.18,7.18,0,0,1-3.34-1.91l.21,0a6.08,6.08,0,0,1-4.1,3.21,4.63,4.63,0,0,1-4.91-2.24l.25,0a3.83,3.83,0,0,1-1,1.69,5.16,5.16,0,0,1-1.5,1,7.13,7.13,0,0,1-2.89.48,13.59,13.59,0,0,1-1.89-.19,4.78,4.78,0,0,1-.66-.13,3.06,3.06,0,0,1,.67.05c.44,0,1.08.11,1.89.11a7.08,7.08,0,0,0,2.79-.53,4.13,4.13,0,0,0,2.38-2.53l.1-.33.15.3a4.36,4.36,0,0,0,4.61,2.07,5.82,5.82,0,0,0,3.92-3l.09-.17.13.14a7.15,7.15,0,0,0,3.21,1.87,7.69,7.69,0,0,0,2.94.23A9,9,0,0,0,663.28,125.74Z" style="fill:#455a64"></path><path d="M654.15,140.29a.33.33,0,0,1-.1.18,1,1,0,0,1-.53.28,4.46,4.46,0,0,1-2.13-.22,5.19,5.19,0,0,1-2.54-1.88,5.26,5.26,0,0,1-.94-3.74v0l.22.14a6.17,6.17,0,0,1-3.79.76,6.87,6.87,0,0,1-3-1.07,8.21,8.21,0,0,1-1.62-1.38,2.78,2.78,0,0,1-.46-.63,11.06,11.06,0,0,0,2.19,1.84,6.9,6.9,0,0,0,2.89,1,6.09,6.09,0,0,0,3.61-.75l.25-.14,0,.29v0a5,5,0,0,0,3.27,5.4,4.74,4.74,0,0,0,2,.3A1,1,0,0,0,654.15,140.29Z" style="fill:#455a64"></path><path d="M624.2,107.77a7.93,7.93,0,0,0-.25,3,6.41,6.41,0,0,0,4.17,5.34,6.45,6.45,0,0,0,2.21.42h.18l0,.17a8.48,8.48,0,0,0,.54,5.48,5.27,5.27,0,0,0,.44.83.7.7,0,0,0,.53.35.46.46,0,0,0,.37-.14,1,1,0,0,0,.09-.12.23.23,0,0,1,0,.15.48.48,0,0,1-.41.21.8.8,0,0,1-.64-.37,5.68,5.68,0,0,1-.5-.83,8.69,8.69,0,0,1-.77-2.43,8.55,8.55,0,0,1,.13-3.2l.14.17a6.6,6.6,0,0,1-2.32-.43,6.78,6.78,0,0,1-3.16-2.48,6.58,6.58,0,0,1-1.1-3.11,6.41,6.41,0,0,1,.17-2.21,3.72,3.72,0,0,1,.19-.57C624.16,107.83,624.19,107.76,624.2,107.77Z" style="fill:#455a64"></path><path d="M523.2,431.72l2.46,27.59s-27.12,11.18-27.16,16.33l53.56-2.26L550,430.23Z" style="fill:#455a64"></path><path d="M541.78,456.23a2.22,2.22,0,0,1,1.66,2.44,2.12,2.12,0,0,1-2.41,1.66,2.32,2.32,0,0,1-1.74-2.59,2.2,2.2,0,0,1,2.69-1.45" style="fill:#e0e0e0"></path><path d="M552.06,473.38l-.16-3.44L500,473.18a4,4,0,0,0-1.7,2.76Z" style="fill:#263238"></path><path d="M525.18,459.52c0,.26,1.35.31,2.69,1.09s2.09,1.85,2.33,1.74-.24-1.63-1.88-2.54S525.11,459.28,525.18,459.52Z" style="fill:#263238"></path><path d="M519.63,462.16c0,.26,1.12.65,2.08,1.72s1.27,2.23,1.54,2.21.35-1.53-.87-2.84S519.62,461.91,519.63,462.16Z" style="fill:#263238"></path><path d="M516.77,469.12c.24,0,.54-1.3-.21-2.71s-2-1.92-2.12-1.69.7,1,1.3,2.12S516.51,469.1,516.77,469.12Z" style="fill:#263238"></path><path d="M525.32,453.12c.12.23,1.31-.19,2.81-.17s2.68.43,2.81.2-1-1.12-2.81-1.12S525.18,452.92,525.32,453.12Z" style="fill:#263238"></path><path d="M524,447.22a5.29,5.29,0,0,0,2.71-.16,12.24,12.24,0,0,0,2.78-1,13.45,13.45,0,0,0,1.51-.91,3.34,3.34,0,0,0,.79-.68,1.16,1.16,0,0,0,0-1.41,1.45,1.45,0,0,0-1.19-.54,3.56,3.56,0,0,0-1,.19,9.92,9.92,0,0,0-1.66.67,9.65,9.65,0,0,0-2.41,1.77c-1.19,1.23-1.56,2.24-1.47,2.28s.69-.78,1.92-1.8a10.61,10.61,0,0,1,2.34-1.49,9.5,9.5,0,0,1,1.53-.56c.56-.18,1.05-.21,1.21,0,.06.09.07.13,0,.3a2.75,2.75,0,0,1-.58.5,13.49,13.49,0,0,1-1.39.89,14.38,14.38,0,0,1-2.56,1.14A17.73,17.73,0,0,0,524,447.22Z" style="fill:#263238"></path><path d="M466.84,376.61,452,400s-28.32-7.6-31.48-3.54l43.91,30.76L489,391.72Z" style="fill:#455a64"></path><path d="M466.7,407.36a2.22,2.22,0,0,1-.16,2.95,2.13,2.13,0,0,1-2.92-.14,2.33,2.33,0,0,1,.19-3.12,2.21,2.21,0,0,1,3,.48" style="fill:#e0e0e0"></path><path d="M464.45,427.23l1.95-2.83-43.21-29a4.06,4.06,0,0,0-3,1.16Z" style="fill:#263238"></path><path d="M451.52,399.88c-.14.23.88,1.07,1.48,2.51s.53,2.74.79,2.79.8-1.43,0-3.15S451.61,399.65,451.52,399.88Z" style="fill:#263238"></path><path d="M445.51,398.61c-.19.18.5,1.2.61,2.63s-.35,2.55-.12,2.69,1.2-1,1-2.78S445.66,398.41,445.51,398.61Z" style="fill:#263238"></path><path d="M439,402.4c.17.18,1.22-.7,1.48-2.28s-.44-2.75-.66-2.63,0,1.19-.25,2.48S438.81,402.23,439,402.4Z" style="fill:#263238"></path><path d="M455.52,394.89c0,.26,1.16.64,2.34,1.57s1.87,2,2.11,1.87-.15-1.52-1.55-2.6S455.53,394.64,455.52,394.89Z" style="fill:#263238"></path><path d="M458.09,389.42c-.06.09.71.82,2.25,1.52a12.6,12.6,0,0,0,2.83.89,12,12,0,0,0,1.75.19,3.19,3.19,0,0,0,1-.06,1.13,1.13,0,0,0,.89-1.09,1.41,1.41,0,0,0-.61-1.15,3.16,3.16,0,0,0-.92-.46,9.66,9.66,0,0,0-1.72-.48,9.8,9.8,0,0,0-3-.06,4.58,4.58,0,0,0-2.56.92c.05.14,1-.2,2.62-.27a11.2,11.2,0,0,1,2.77.24,10.65,10.65,0,0,1,1.55.49c.56.2,1,.47.94.76,0,.11,0,.15-.22.22a2.54,2.54,0,0,1-.76,0,14.15,14.15,0,0,1-1.64-.13,15,15,0,0,1-2.73-.65A19.25,19.25,0,0,0,458.09,389.42Z" style="fill:#263238"></path><path d="M601.7,300.81c-1.05,0,4,13.92-32.82,18.83s-50.65,10.28-57.66,19S522.36,447,522.36,447l29.55-1.06s-1.92-49.45-2.62-56.46S543.76,364,543.76,364h0l77.83.79c.46,0,.91,0,1.36,0,17.38-.56,30.89-22.87,29.46-40.19l-1.72-9.4Z" style="fill:#263238"></path><path d="M601.17,307.53s-36.09-10.16-55.36-11.91-30.45,1.41-33.73,4.95c-7.63,8.25-57.86,89.77-57.86,89.77l26.8,18.4S525.14,346.42,537.4,330l4.23-5,60.07-8.28Z" style="fill:#263238"></path><path d="M596.64,314a.91.91,0,0,1-.26.08l-.79.18-3,.65-11.14,2.28-36.79,7.36-3,.59.18-.16a100.85,100.85,0,0,1-19.45,29.58,82.72,82.72,0,0,1-7.86,7.2l-2.3,1.76-.6.44c-.14.1-.21.15-.22.14a1.07,1.07,0,0,1,.19-.18l.57-.48,2.24-1.82a94.3,94.3,0,0,0,7.74-7.29A101.83,101.83,0,0,0,532,342a99.66,99.66,0,0,0,9.36-17.12l.06-.13.12,0,3-.59,36.82-7.22,11.17-2.13,3-.56.8-.13A.93.93,0,0,1,596.64,314Z" style="fill:#455a64"></path><path d="M653.81,299.72,652,292.47s-1.9-36.59-2.48-60-15.87-34.79-15.87-34.79L630.79,191l-30.48,9.67.24,9.58L587.11,232c-3.83,9.37-5.25,14.73-1.86,25.82l8.07,33.51-8.39,11.92,70.9,21.81C656.36,314.05,656.49,310.41,653.81,299.72Z" style="fill:#625EFF"></path><path d="M593,291.27c0-.13,7.93,2.23,17.62,5.27s17.51,5.61,17.47,5.74-7.93-2.23-17.62-5.27S592.94,291.4,593,291.27Z" style="fill:#263238"></path><path d="M602.67,291.24c0-.14,4.82-.68,10.78-1.22s10.81-.87,10.82-.74-4.81.68-10.78,1.22S602.68,291.37,602.67,291.24Z" style="fill:#263238"></path><path d="M506.49,241s-7-9.57-9.17-10.66a34.86,34.86,0,0,1-4.23-2.69.75.75,0,0,0-1,.18c-.58.86-1.37,2.48-.3,4a14.83,14.83,0,0,0,3.79,3.49l-3-.88a40.17,40.17,0,0,0-4.55-3.18c-2.34-.89-4.62,2.8-4.62,2.8L481,235s-4.17-2.33-5.62-1-2.14,3.59-.39,5.33l3.59,2.72-.78,2.52s-4.75-.87-4.65,2.62,5.33,3.4,5.33,3.4l8,5.62L509.22,259,513,241.64Z" style="fill:#ae7461"></path><path d="M482.82,231.34s-5.26-1.55-5.06,2.43,5.06,7.76,6.71,6.88,1.5-1.6.34-3.83-1.41-2.76-1.41-2.76l1.49-1.79A5.1,5.1,0,0,0,482.82,231.34Z" style="fill:#ae7461"></path><path d="M482.82,231.34a1.62,1.62,0,0,1,.6.08,4.85,4.85,0,0,1,1.56.75l.11.08-.09.11-1.46,1.82,0-.2c.6,1.18,1.37,2.49,2.1,4.1a2.61,2.61,0,0,1,.24,1.42,1.94,1.94,0,0,1-1,1.18l-.31.19-.41.14a2.42,2.42,0,0,1-.81,0,4.83,4.83,0,0,1-1.43-.58,10,10,0,0,1-3.87-4.35,6,6,0,0,1-.54-2.54,2.44,2.44,0,0,1,.95-2.06,3.38,3.38,0,0,1,1.8-.54,7.65,7.65,0,0,1,1.38.1,3.32,3.32,0,0,1,1.13.33,10,10,0,0,1-1.15-.12,7.27,7.27,0,0,0-1.34,0,3.24,3.24,0,0,0-1.6.55,2.06,2.06,0,0,0-.74,1.77,5.8,5.8,0,0,0,.54,2.33,9.77,9.77,0,0,0,3.7,4.1,4.31,4.31,0,0,0,1.27.52,1.6,1.6,0,0,0,.61,0l.26-.09.29-.16a1.47,1.47,0,0,0,.76-.85,2.2,2.2,0,0,0-.2-1.15c-.67-1.52-1.43-2.93-2-4.11l-.05-.11.08-.09,1.53-1.76v.2A8.19,8.19,0,0,0,482.82,231.34Z" style="fill:#6f4439"></path><path d="M476.14,240a2.21,2.21,0,0,0-2.51.44,3,3,0,0,0-.51,4.05c1.94,3.1,9.3,5.66,11.74,4.17a2.57,2.57,0,0,0-.1-4.23C483.57,243.54,478.48,241.07,476.14,240Z" style="fill:#ae7461"></path><path d="M476.14,240a7.22,7.22,0,0,1,1.29.51c.81.36,2,.89,3.4,1.58.72.34,1.5.73,2.33,1.16.41.22.84.44,1.27.7a3.7,3.7,0,0,1,1.22,1.06,2.81,2.81,0,0,1-.08,3.36,2.68,2.68,0,0,1-1.65.89,6.75,6.75,0,0,1-1.85,0,15.62,15.62,0,0,1-6.49-2.28,9.11,9.11,0,0,1-2.31-2,3.59,3.59,0,0,1-.88-2.52,3.31,3.31,0,0,1,.95-2,2.31,2.31,0,0,1,1.44-.82,2.09,2.09,0,0,1,1,.1c.23.08.33.16.32.17a3,3,0,0,0-1.32-.07,2.16,2.16,0,0,0-1.26.81,3.06,3.06,0,0,0-.8,1.82,3.22,3.22,0,0,0,.85,2.23,8.83,8.83,0,0,0,2.22,1.83,15.72,15.72,0,0,0,6.28,2.17,3.57,3.57,0,0,0,3.07-.75,2.33,2.33,0,0,0,.08-2.76,3.14,3.14,0,0,0-1.07-.94c-.41-.25-.83-.49-1.24-.71l-2.28-1.21-3.33-1.73A6.36,6.36,0,0,1,476.14,240Z" style="fill:#6f4439"></path><path d="M486.39,252.89a4.93,4.93,0,0,0-2.21-1.28c-2.65-.89-7.79-1.73-8.06-.9h0a2.94,2.94,0,0,0,.43,3.36,6.16,6.16,0,0,0,3.12,1.76,14.34,14.34,0,0,0,4.61.52,3,3,0,0,0,2.48-1.07A2.12,2.12,0,0,0,486.39,252.89Z" style="fill:#ae7461"></path><path d="M486.39,252.89s.09.05.22.2a2.05,2.05,0,0,1,.39.74,2,2,0,0,1,0,1.36,2.13,2.13,0,0,1-1.39,1.14,7.28,7.28,0,0,1-2.13.25,13.8,13.8,0,0,1-2.42-.19,13,13,0,0,1-2.59-.71,5.09,5.09,0,0,1-2.35-1.79,3.1,3.1,0,0,1-.18-3.32l0,.06a.82.82,0,0,1,.67-.44,2.63,2.63,0,0,1,.61-.06,10.67,10.67,0,0,1,1.14,0c.73.07,1.42.17,2.07.29a27.24,27.24,0,0,1,3.37.83,7,7,0,0,1,2.08,1c.43.33.59.6.57.61s-.22-.2-.67-.47a7.93,7.93,0,0,0-2.08-.81,31.59,31.59,0,0,0-3.34-.72c-.65-.1-1.33-.19-2-.24a9.74,9.74,0,0,0-1.08,0,3.07,3.07,0,0,0-.53.06c-.17,0-.29.14-.32.1v.07a2.6,2.6,0,0,0,.2,2.75,4.62,4.62,0,0,0,2.1,1.6,11.82,11.82,0,0,0,2.49.71,15.11,15.11,0,0,0,2.34.24,7.43,7.43,0,0,0,2-.17,1.87,1.87,0,0,0,1.23-.91,1.8,1.8,0,0,0,.11-1.19A6.34,6.34,0,0,0,486.39,252.89Z" style="fill:#6f4439"></path><path d="M500.69,237.79c-.06.06-.41-.35-1.13-.76a11,11,0,0,0-3.09-1c-2.55-.59-4.55-1.42-4.47-1.59s2.05.5,4.59,1.08a8.5,8.5,0,0,1,3.17,1.23C500.49,237.25,500.74,237.76,500.69,237.79Z" style="fill:#6f4439"></path><path d="M631.78,238.56c-6.45,6.67-45.85,18.51-58.14,22.95-6.44,2.33-67.93-2.24-67.93-3.14s4.69-17.7,4.69-17.7l55.06-4.76,45.21-31" style="fill:#625EFF"></path><path d="M610.67,205s-.27.21-.8.58l-2.37,1.66-9.07,6.29-32.85,22.61-.05,0h-.06l-55,4.81.22-.19c-.83,3-1.68,6.13-2.55,9.28-.42,1.57-.85,3.16-1.27,4.76-.21.81-.41,1.61-.61,2.42-.09.39-.2.83-.25,1.16,0,0-.08-.21-.07-.16l0,0,0,0,.13,0,.29.06.61.1c4.41.6,8.83.94,13.17,1.3s8.63.66,12.84.93c8.41.54,16.54,1,24.29,1.19,3.87.1,7.65.17,11.31.05.92,0,1.83-.08,2.72-.17a9.52,9.52,0,0,0,2.58-.5c1.68-.6,3.34-1.16,5-1.71l18.2-6.07c11.1-3.77,20-7.08,26-9.79a52.15,52.15,0,0,0,6.67-3.48c.37-.23.68-.45.94-.65a5.93,5.93,0,0,0,.65-.51c.33-.29.51-.43.51-.43a10.45,10.45,0,0,1-2,1.67,48.43,48.43,0,0,1-6.65,3.59c-6,2.77-14.84,6.14-25.94,10L579,259.9c-1.64.55-3.29,1.12-5,1.72a10.35,10.35,0,0,1-2.69.53c-.9.09-1.82.14-2.74.18-3.68.13-7.46.07-11.34,0-7.76-.2-15.89-.63-24.32-1.16q-6.31-.4-12.84-.92c-4.35-.37-8.75-.7-13.21-1.3l-.63-.11-.32-.07-.17-.05-.11,0-.08-.06s-.14-.2-.11-.23a12.53,12.53,0,0,1,.26-1.28c.21-.81.41-1.62.61-2.43q.65-2.4,1.28-4.77c.87-3.15,1.72-6.25,2.56-9.27l0-.18h.18l55.06-4.72-.1,0,32.95-22.46,9.14-6.19,2.4-1.61C610.38,205.12,610.67,205,610.67,205Z" style="fill:#263238"></path><path d="M639.75,214.1a30.35,30.35,0,0,0-1.92-3.6,13.08,13.08,0,0,0-3.05-3.11A18.29,18.29,0,0,0,630,205a23.33,23.33,0,0,0-9.68-1.13c-2.51.24-4,.73-4,.64a3.67,3.67,0,0,1,1-.39,18.69,18.69,0,0,1,3-.62,21.87,21.87,0,0,1,9.89,1,17.88,17.88,0,0,1,4.91,2.52,12.66,12.66,0,0,1,3.08,3.3,14.28,14.28,0,0,1,1.33,2.73A4.35,4.35,0,0,1,639.75,214.1Z" style="fill:#263238"></path><g style="opacity:0.30000000000000004"><path d="M586.23,257c18.88,4,39.76-4,51.15-19.57C619.32,245.57,602,252.45,586.23,257Z"></path></g><path d="M646.53,370.37h5.71a5.93,5.93,0,0,0,5.89-5.22c1.12-9.3,3.36-35.2,3.38-35.46l-4.06-.35c0,.26-2.26,26.09-3.37,35.33a1.86,1.86,0,0,1-1.84,1.62h-5.71Z" style="fill:#e0e0e0"></path><path d="M646.53,370.37a1.76,1.76,0,0,1,0-.24q0-.3,0-.78c0-.73,0-1.75,0-3.06v-.09h.09l3.18,0,1.89,0a6.4,6.4,0,0,0,1,0,1.76,1.76,0,0,0,.85-.47,1.7,1.7,0,0,0,.46-.89c.05-.35.07-.75.11-1.14.07-.78.15-1.6.22-2.43.16-1.69.32-3.48.49-5.36.71-7.56,1.56-16.65,2.48-26.5l0-.25.25,0,3,.26,1,.09.25,0,0,.25c-1.35,13.76-2.56,26.18-3.43,35.19a6.06,6.06,0,0,1-5.79,5.58c-.78,0-1.48,0-2.12,0l-2.9-.06-.75,0a.64.64,0,0,1-.24,0h.28l.76,0,2.9-.06a9,9,0,0,0,4.4-.68,5.83,5.83,0,0,0,3.12-4.74c.84-9,2-21.43,3.28-35.19l.22.26-1-.09-3-.26.27-.22c-1,9.85-1.84,18.95-2.57,26.5-.19,1.89-.37,3.68-.53,5.36-.09.84-.17,1.65-.25,2.43,0,.4-.07.77-.12,1.16a1.94,1.94,0,0,1-.57,1.05,2,2,0,0,1-1,.54,6.28,6.28,0,0,1-1,0h-1.89l-3.18,0,.1-.1c0,1.29,0,2.29,0,3,0,.33,0,.59,0,.79A.9.9,0,0,1,646.53,370.37Z" style="fill:#263238"></path><polygon points="556.27 371.56 542.47 473.67 547.87 473.67 568.36 375.36 556.27 371.56" style="fill:#455a64"></polygon><path d="M556.27,371.56l.77.21,2.3.7,9.06,2.78.1,0,0,.1c-3.66,17.67-11.19,54.07-19.88,96.05-.16.79-.32,1.57-.47,2.29l0,.21h-5.9l0-.3c3.9-28.59,7.4-54.14,9.92-72.57l3-21.66c.36-2.53.64-4.49.83-5.84.09-.65.16-1.15.22-1.51s.08-.49.08-.49,0,.19-.06.54-.11.88-.19,1.54c-.18,1.37-.43,3.36-.76,5.92-.68,5.13-1.66,12.55-2.87,21.75-2.45,18.38-5.85,43.87-9.66,72.39l-.26-.29h5.4l-.25.21.47-2.28c8.81-42,16.45-78.34,20.15-96l.09.13-9-2.88-2.31-.76Z" style="fill:#263238"></path><path d="M555.67,375.36h91.07a6.14,6.14,0,0,0,6.15-6.14h0a6.15,6.15,0,0,0-6.15-6.15H555.67a6.15,6.15,0,0,0-6.15,6.15h0A6.14,6.14,0,0,0,555.67,375.36Z" style="fill:#455a64"></path><path d="M666.22,332.73l12.43-97.49a6.14,6.14,0,0,0-5.32-6.87h0a6.14,6.14,0,0,0-6.87,5.32L654,331.18a6.14,6.14,0,0,0,5.31,6.87h0A6.14,6.14,0,0,0,666.22,332.73Z" style="fill:#455a64"></path><polygon points="645.68 371.56 659.48 473.67 654.08 473.67 633.59 375.36 645.68 371.56" style="fill:#455a64"></polygon><path d="M554.91,375.36c0-.14,20.84-.25,46.55-.25s46.56.11,46.56.25-20.84.24-46.56.24S554.91,375.5,554.91,375.36Z" style="fill:#263238"></path></g><g id="freepik--character-1--inject-8"><polygon points="163.94 216.54 184.97 254.88 233.02 256.3 233.02 271.88 179.29 279.95 158.09 233.73 163.94 216.54" style="fill:#625EFF"></polygon><polygon points="163.94 216.54 184.97 254.88 233.02 256.3 233.02 271.88 179.29 279.95 158.09 233.73 163.94 216.54" style="opacity:0.30000000000000004"></polygon><path d="M143.88,109.58a6.17,6.17,0,0,1,6.56-2.91,8.41,8.41,0,0,1,10.41.61,7.64,7.64,0,0,1,7.43.15,7.76,7.76,0,0,1,3.68,6.49,6.47,6.47,0,0,1,6.44,3.6A6.54,6.54,0,0,1,177,124.8a6.09,6.09,0,0,1-3,11.73l-29.29-19.8A6.25,6.25,0,0,1,143.88,109.58Z" style="fill:#263238"></path><path d="M174.85,137.42a25.72,25.72,0,0,0-24.62-24.75l-1.33,0c-14.35.27-19.4,13.35-18.74,27.78l-.88,53.49h0l22,20.7,7.34-14.47,2.23-14.25s13.85-1.6,14.58-15.44C175.75,163.74,175.35,149.92,174.85,137.42Z" style="fill:#ffbf9d"></path><path d="M160.93,185.86a33.26,33.26,0,0,1-17.82-6s3.33,10.49,17.12,9.8Z" style="fill:#ff9a6c"></path><path d="M170.35,150.08a2,2,0,0,1-2,1.92,1.88,1.88,0,0,1-2-1.86,2,2,0,0,1,2-1.93A1.89,1.89,0,0,1,170.35,150.08Z" style="fill:#263238"></path><path d="M171.75,144.78c-.26.25-1.7-.92-3.82-1s-3.71.93-3.92.66c-.11-.12.15-.58.85-1.05a5.43,5.43,0,0,1,3.16-.84,5.15,5.15,0,0,1,3,1.12C171.67,144.2,171.87,144.67,171.75,144.78Z" style="fill:#263238"></path><path d="M152.18,150.27a2,2,0,0,1-2,1.92,1.89,1.89,0,0,1-2-1.87,2,2,0,0,1,2-1.92A1.89,1.89,0,0,1,152.18,150.27Z" style="fill:#263238"></path><path d="M151.52,143.68c-.25.25-1.7-.92-3.81-1s-3.71.92-3.93.65.15-.57.85-1a5.35,5.35,0,0,1,3.16-.84,5.16,5.16,0,0,1,3,1.11C151.44,143.09,151.64,143.57,151.52,143.68Z" style="fill:#263238"></path><path d="M157.86,159.73a13.91,13.91,0,0,1,3.46-.49c.54,0,1.06-.12,1.16-.49a2.74,2.74,0,0,0-.29-1.62c-.46-1.34-.93-2.74-1.44-4.21-2-6-3.39-10.88-3.15-11s2,4.7,4,10.68c.48,1.48.94,2.88,1.37,4.23a3.14,3.14,0,0,1,.19,2.14,1.36,1.36,0,0,1-.92.76,3.48,3.48,0,0,1-.92.09A13.89,13.89,0,0,1,157.86,159.73Z" style="fill:#263238"></path><path d="M151.57,161c.35,0,.26,2.3,2.16,4s4.35,1.56,4.36,1.89c0,.14-.56.42-1.6.41a5.72,5.72,0,0,1-3.64-1.44,5,5,0,0,1-1.66-3.37C151.14,161.49,151.42,160.93,151.57,161Z" style="fill:#263238"></path><path d="M151.79,137.6c-.27.54-2.08,0-4.29-.08s-4.08.34-4.28-.22c-.09-.26.3-.75,1.09-1.19a6.53,6.53,0,0,1,3.32-.74,6.33,6.33,0,0,1,3.22,1C151.58,136.83,151.91,137.34,151.79,137.6Z" style="fill:#263238"></path><path d="M171.5,138.93c-.35.5-1.83.06-3.58.11s-3.22.46-3.59,0c-.16-.24.06-.73.69-1.22a5.17,5.17,0,0,1,5.77-.06C171.43,138.2,171.66,138.68,171.5,138.93Z" style="fill:#263238"></path><path d="M173.78,131s-3.28-8.81-7.36-11c-4.93-2.65-7.32,2.82-12.06,1.28s-9.46-4.09-14.51-.55c-5.52,3.87-3.13,6.83-3.7,13-2.34,24.86-7.15,31.72-8,19.93-.09-1.29-3.6-2.45-3.91-7.9-.4-7.07-.32-15.63,1.44-20.57,1.48-4.16,4-7,8.4-10,7-4.8,16.25-4.53,22.53-3.64S174.79,120.18,173.78,131Z" style="fill:#263238"></path><path d="M130.82,153.36a3.74,3.74,0,0,0-3.89-3.78c-2.57.14-5.49,1.5-5.53,6.84-.08,9.48,9.4,7.6,9.41,7.32S130.83,157.33,130.82,153.36Z" style="fill:#ffbf9d"></path><path d="M128.79,160.16s-.16.12-.44.24a1.64,1.64,0,0,1-1.23,0c-1-.38-1.82-2-1.85-3.68a5.59,5.59,0,0,1,.48-2.36,1.94,1.94,0,0,1,1.25-1.26.82.82,0,0,1,1,.46c.13.27.07.45.12.47s.2-.16.13-.55a1,1,0,0,0-.37-.59,1.2,1.2,0,0,0-.91-.25,2.3,2.3,0,0,0-1.72,1.45,5.64,5.64,0,0,0-.59,2.64c0,1.91,1,3.71,2.36,4.11a1.75,1.75,0,0,0,1.5-.24C128.77,160.39,128.83,160.18,128.79,160.16Z" style="fill:#ff9a6c"></path><path d="M130,135a8.88,8.88,0,0,0,3.91,2c1.47.2,3.18-.58,3.49-2,.14-.65,0-1.42.46-1.91s1.48-.36,2.26-.25a6,6,0,0,0,6.41-4.08c.66,1.08,2.29,1.1,3.37.45a13.45,13.45,0,0,0,2.68-2.65,3.87,3.87,0,0,1,3.29-1.5,9.39,9.39,0,0,0,2,.54c1.24-.06,1.9-1.5,2.14-2.72s.44-2.66,1.51-3.29,2.24-.17,3.37,0,2.61,0,3-1.1a2.28,2.28,0,0,0-.36-1.74,6.09,6.09,0,0,0-7.1-2.61,8.25,8.25,0,0,0-15.11-2.21,8.37,8.37,0,0,0-13.53,2.54,6.22,6.22,0,0,0-6.44,1.91,6.32,6.32,0,0,0-.77,6.71,5.81,5.81,0,0,0-3.36,4.49c-.11,2,1.71,4,3.61,3.55a3.52,3.52,0,0,0,1.15,4.5,3.48,3.48,0,0,0,4.54-.89" style="fill:#263238"></path><path d="M124.12,131.05a2.26,2.26,0,0,0,.51,1.84,3,3,0,0,0,1.84,1.21,3.24,3.24,0,0,0,2.72-.68l-.4-.07a9.74,9.74,0,0,0,1.79,2.43,5.23,5.23,0,0,0,1.67,1.14,3.6,3.6,0,0,0,1.89.26,3.74,3.74,0,0,0,2.78-1.46,5.63,5.63,0,0,0,.84-1.94,2,2,0,0,0,.1-.76s-.13.24-.3.69a6.5,6.5,0,0,1-.95,1.77,3.83,3.83,0,0,1-5.66-.09,9.51,9.51,0,0,1-1.7-2.29l-.16-.28-.24.21a2.81,2.81,0,0,1-2.29.63,2.71,2.71,0,0,1-1.67-1A4.57,4.57,0,0,1,124.12,131.05Z" style="fill:#455a64"></path><path d="M142.77,110.14s.24.07.65.27a3.26,3.26,0,0,1,1.42,1.31l.1.18.14-.17a11.7,11.7,0,0,1,4.7-3.52,9.1,9.1,0,0,1,3.74-.67,7.76,7.76,0,0,1,6.22,3.66,6.45,6.45,0,0,1,.92,2.9l0,.3.29-.07a5.16,5.16,0,0,1,5.94,3,7.14,7.14,0,0,1,.47,2.82,1.91,1.91,0,0,0,.15-.77,5.59,5.59,0,0,0-.34-2.17,5.39,5.39,0,0,0-2.11-2.63,5.6,5.6,0,0,0-4.23-.77l.31.23a6.84,6.84,0,0,0-1-3.15,8.13,8.13,0,0,0-2.43-2.53,8,8,0,0,0-4.22-1.38,9.27,9.27,0,0,0-3.94.76,11.52,11.52,0,0,0-4.75,3.78l.24,0a3.18,3.18,0,0,0-1.61-1.3A1.4,1.4,0,0,0,142.77,110.14Z" style="fill:#455a64"></path><path d="M280.6,427.08l-1.05,30.08s30.08,10.55,30.42,16.13l-58.24.68L251.44,427Z" style="fill:#455a64"></path><path d="M261.88,454.76a2.4,2.4,0,0,0-1.66,2.74,2.32,2.32,0,0,0,2.71,1.67,2.53,2.53,0,0,0,1.74-2.91,2.4,2.4,0,0,0-3-1.43" style="fill:#e0e0e0"></path><path d="M251.73,474l0-3.74,56.55.47a4.46,4.46,0,0,1,2,2.9Z" style="fill:#263238"></path><path d="M280.08,457.35c0,.29-1.44.42-2.85,1.35s-2.17,2.13-2.43,2,.16-1.77,1.89-2.86S280.15,457.09,280.08,457.35Z" style="fill:#263238"></path><path d="M286.26,459.9c.06.28-1.18.77-2.15,2s-1.26,2.5-1.55,2.49-.47-1.63.77-3.12S286.25,459.63,286.26,459.9Z" style="fill:#263238"></path><path d="M289.77,467.28c-.26.06-.66-1.37.07-2.95s2.08-2.2,2.2-2-.71,1.08-1.29,2.38S290.05,467.25,289.77,467.28Z" style="fill:#263238"></path><path d="M279.56,450.42c-.12.27-1.44-.13-3.06,0s-2.89.63-3,.38,1.06-1.27,3-1.38S279.7,450.2,279.56,450.42Z" style="fill:#263238"></path><path d="M280.6,443.94c0,.12-1.13.3-3,0a13.32,13.32,0,0,1-4.77-1.84,3.64,3.64,0,0,1-.89-.69,1.26,1.26,0,0,1-.14-1.53,1.61,1.61,0,0,1,1.26-.66,4.38,4.38,0,0,1,1.11.15,10.93,10.93,0,0,1,1.83.63,10.59,10.59,0,0,1,2.72,1.78c1.36,1.26,1.83,2.34,1.73,2.39s-.79-.8-2.18-1.84a11.73,11.73,0,0,0-2.63-1.48,10.75,10.75,0,0,0-1.69-.52c-.63-.16-1.16-.17-1.32.11-.05.11-.06.15.07.33a2.82,2.82,0,0,0,.65.5,14.69,14.69,0,0,0,1.56.89,16,16,0,0,0,2.85,1.09A22.49,22.49,0,0,1,280.6,443.94Z" style="fill:#263238"></path><path d="M305.57,368.78l14.19,26.55s31.3-6,34.4-1.32l-50,29.82-23.8-40.46Z" style="fill:#455a64"></path><path d="M303.26,402.11a2.41,2.41,0,0,0-.05,3.21,2.3,2.3,0,0,0,3.17.08,2.54,2.54,0,0,0,.05-3.39,2.39,2.39,0,0,0-3.32.28" style="fill:#e0e0e0"></path><path d="M304.12,423.83l-1.9-3.23,49.15-28a4.43,4.43,0,0,1,3.2,1.5Z" style="fill:#263238"></path><path d="M320.31,395.23c.14.25-1,1.08-1.79,2.59s-.81,2.93-1.09,3-.75-1.62.2-3.43S320.23,395,320.31,395.23Z" style="fill:#263238"></path><path d="M326.93,394.33c.2.21-.63,1.26-.87,2.8s.17,2.79-.08,2.92-1.23-1.18-.9-3.09S326.79,394.1,326.93,394.33Z" style="fill:#263238"></path><path d="M333.67,399c-.2.19-1.26-.85-1.42-2.58s.7-2.95.92-2.8-.07,1.29.08,2.71S333.9,398.79,333.67,399Z" style="fill:#263238"></path><path d="M316.38,389.49c0,.29-1.31.61-2.66,1.52s-2.18,2-2.44,1.85.29-1.63,1.89-2.68S316.39,389.23,316.38,389.49Z" style="fill:#263238"></path><path d="M314,383.36c.06.11-.83.83-2.55,1.47a13.09,13.09,0,0,1-3.14.73,13.33,13.33,0,0,1-1.92.08,3.77,3.77,0,0,1-1.12-.16,1.25,1.25,0,0,1-.88-1.25,1.6,1.6,0,0,1,.76-1.2,3.85,3.85,0,0,1,1-.42,9.69,9.69,0,0,1,1.9-.38,10.49,10.49,0,0,1,3.25.18c1.81.4,2.75,1.1,2.7,1.19s-1.09-.29-2.82-.5a11.85,11.85,0,0,0-3,0,12.52,12.52,0,0,0-1.72.4c-.62.17-1.08.44-1.08.76,0,.12,0,.16.22.25a3,3,0,0,0,.82.11,15.15,15.15,0,0,0,1.79,0,15.69,15.69,0,0,0,3-.48A23.24,23.24,0,0,1,314,383.36Z" style="fill:#263238"></path><path d="M122.49,329.07l68.23-33s37.44-15.3,51.82-19.26c15.4-4.25,29.28,7.34,37.87,25.29,5.81,12.16,36.62,83.24,36.62,83.24l-27.21,18-49.4-85.85-74.13,46.45s-14.83-.3-29.17-.3C124.17,363.63,122,335,122.49,329.07Z" style="fill:#263238"></path><polygon points="122.55 324.31 122.55 324.31 122.55 324.31 122.55 324.31" style="fill:#263238"></polygon><path d="M284.34,441.3l-8.44-93s-1.66-21.65-14.15-26-27.09-2.58-27.09-2.58l-70,44.18,71.81,1.23s3.65,15.11,4.69,21.66c1.24,7.82,7.18,56.79,7.18,56.79Z" style="fill:#263238"></path><path d="M166.29,360.06l.32-.22,1-.59,3.79-2.28,14.22-8.46,21.73-12.87,13.17-7.78q3.45-2.06,7.07-4.18l7.44-4.21.05,0h0l9.74-.31h0a68.31,68.31,0,0,1,12.61,1.63,25.8,25.8,0,0,1,3.14,1c1,.52,2,1,2.92,1.59l1.36,1,.68.5.61.57,1.23,1.15c.39.4.74.85,1.11,1.28a31,31,0,0,1,5.59,10.41,44,44,0,0,1,2.14,11.29c.68,7.48,1.33,14.7,1.95,21.58,1.22,13.75,2.33,26.13,3.26,36.54s1.64,18.8,2.15,24.64c.24,2.89.43,5.15.56,6.7.06.75.11,1.33.14,1.74s0,.6,0,.6,0-.2-.08-.59-.11-1-.19-1.74c-.15-1.55-.37-3.8-.65-6.7-.55-5.83-1.34-14.24-2.31-24.62s-2.1-22.79-3.37-36.54c-.62-6.88-1.28-14.1-2-21.58a44.33,44.33,0,0,0-2.12-11.17,30.81,30.81,0,0,0-5.51-10.25c-.37-.41-.7-.85-1.09-1.25l-1.2-1.12-.6-.56-.66-.49-1.32-.95c-.92-.58-1.91-1.06-2.84-1.56a24.91,24.91,0,0,0-3.08-.94,67.9,67.9,0,0,0-12.51-1.63h0l-9.74.3.11,0-7.45,4.19-7.07,4.17L207.52,336l-21.78,12.77-14.29,8.35-3.83,2.21-1,.56Z" style="fill:#455a64"></path><path d="M238.21,260.77s8.59-9.23,11-10.12a36.91,36.91,0,0,0,4.79-2.3.79.79,0,0,1,1.08.32c.51,1,1.15,2.78-.17,4.2a15.76,15.76,0,0,1-4.43,3.22l3.23-.56a42.58,42.58,0,0,1,5.19-2.79c2.58-.65,4.53,3.52,4.53,3.52l2.44,1.32s4.68-1.94,6.05-.32,1.8,4.05-.25,5.67l-4.12,2.42.5,2.76s5.12-.34,4.59,3.33-6.05,2.92-6.05,2.92l-9.08,4.95H233.11l-1.79-18.72Z" style="fill:#ffbf9d"></path><path d="M264.37,253.47s5.74-1,5,3.18-6.29,7.56-7.92,6.43-1.39-1.88.11-4.08,1.83-2.74,1.83-2.74l-1.36-2.07A5.32,5.32,0,0,1,264.37,253.47Z" style="fill:#ffbf9d"></path><path d="M264.37,253.47a7.86,7.86,0,0,0-2.23.84l0-.19,1.4,2,.06.09-.06.11c-.74,1.18-1.72,2.56-2.62,4.09a2.39,2.39,0,0,0-.35,1.19,1.56,1.56,0,0,0,.7,1l.29.21c.09.06.18.08.26.13a1.8,1.8,0,0,0,.66,0,4.33,4.33,0,0,0,1.4-.39,10.32,10.32,0,0,0,4.42-3.87,6.24,6.24,0,0,0,.87-2.4,2.22,2.22,0,0,0-.58-2,3.37,3.37,0,0,0-1.62-.77,8,8,0,0,0-1.41-.15c-.79,0-1.23,0-1.23,0a3.28,3.28,0,0,1,1.23-.2,6.88,6.88,0,0,1,1.46.06,3.61,3.61,0,0,1,1.83.79,2.63,2.63,0,0,1,.75,2.29,6.71,6.71,0,0,1-.89,2.6,10.63,10.63,0,0,1-4.62,4.1,5,5,0,0,1-1.57.43,2.25,2.25,0,0,1-.85-.07,2.6,2.6,0,0,1-.41-.2L261,263a2.07,2.07,0,0,1-.88-1.35,2.74,2.74,0,0,1,.43-1.47c1-1.6,1.94-2.89,2.72-4.06v.2L262,254.27l-.08-.13.12-.06a5.14,5.14,0,0,1,1.73-.6A1.73,1.73,0,0,1,264.37,253.47Z" style="fill:#ff9a6c"></path><path d="M270.34,263.38a2.31,2.31,0,0,1,2.59.76,3.24,3.24,0,0,1,.05,4.34c-2.43,3-10.51,4.81-12.9,2.94a2.71,2.71,0,0,1,.63-4.44C262.06,266.23,267.74,264.26,270.34,263.38Z" style="fill:#ffbf9d"></path><path d="M270.34,263.38A9.09,9.09,0,0,1,269,264l-3.72,1.4-2.56,1c-.46.19-.93.38-1.4.6a3.3,3.3,0,0,0-1.24.86,2.48,2.48,0,0,0-.27,2.94,3.84,3.84,0,0,0,3.16,1.18,16.64,16.64,0,0,0,6.9-1.51,9.48,9.48,0,0,0,2.57-1.66,3.49,3.49,0,0,0,1.18-2.26,3.38,3.38,0,0,0-.62-2,2.38,2.38,0,0,0-1.24-1,3.17,3.17,0,0,0-1.41-.07s.11-.09.36-.15a2.34,2.34,0,0,1,1.11,0,2.53,2.53,0,0,1,1.42,1,3.68,3.68,0,0,1,.75,2.21,3.8,3.8,0,0,1-1.24,2.54,9.66,9.66,0,0,1-2.68,1.79,16.86,16.86,0,0,1-7.12,1.6,7.12,7.12,0,0,1-1.94-.29,2.83,2.83,0,0,1-1.62-1.13,3,3,0,0,1,.32-3.53,3.88,3.88,0,0,1,1.42-1c.49-.21,1-.4,1.43-.58.93-.35,1.8-.66,2.59-.94,1.59-.55,2.89-1,3.79-1.25A7.36,7.36,0,0,1,270.34,263.38Z" style="fill:#ff9a6c"></path><path d="M257.94,275.75a5.18,5.18,0,0,1,2.49-1.08c2.89-.61,8.42-.86,8.6.05h0a3.11,3.11,0,0,1-.87,3.49,6.51,6.51,0,0,1-3.5,1.47,15.39,15.39,0,0,1-4.93,0,3.13,3.13,0,0,1-2.48-1.44A2.25,2.25,0,0,1,257.94,275.75Z" style="fill:#ffbf9d"></path><path d="M257.94,275.75a4.59,4.59,0,0,0-.58,1,1.78,1.78,0,0,0,1.16,2.39,7.5,7.5,0,0,0,2.1.43,14.73,14.73,0,0,0,2.5,0,13,13,0,0,0,2.71-.44,5,5,0,0,0,2.43-1.43,2.82,2.82,0,0,0,.55-2.9l0-.06h0a.8.8,0,0,0-.31-.16,3.16,3.16,0,0,0-.55-.13,8.77,8.77,0,0,0-1.14-.1c-.76,0-1.49,0-2.18,0a35.31,35.31,0,0,0-3.62.34,8.33,8.33,0,0,0-2.29.61c-.51.24-.74.45-.76.42s.17-.28.67-.57a7.4,7.4,0,0,1,2.32-.78,30.6,30.6,0,0,1,3.65-.46c.7,0,1.45-.07,2.23,0a10.14,10.14,0,0,1,1.2.09,4,4,0,0,1,.63.14c.19.09.49.11.64.54l0-.06a3.31,3.31,0,0,1-.6,3.46,5.37,5.37,0,0,1-2.69,1.58,13,13,0,0,1-2.82.43,14.5,14.5,0,0,1-2.58-.09,7.88,7.88,0,0,1-2.2-.52,2.3,2.3,0,0,1-1.32-1.37,2.11,2.11,0,0,1,.13-1.44,2.21,2.21,0,0,1,.51-.73C257.83,275.79,257.93,275.74,257.94,275.75Z" style="fill:#ff9a6c"></path><path d="M244.72,258.06c-.05,0,.29-.55,1.12-1a9.29,9.29,0,0,1,3.49-.9l3.51-.43a5.82,5.82,0,0,1,1.47-.15c.06.18-2.15.8-4.92,1.1a11.27,11.27,0,0,0-3.39.72C245.19,257.73,244.78,258.12,244.72,258.06Z" style="fill:#ff9a6c"></path><path d="M124.05,191s-21.33,18.91-17.14,47.56,9.44,75.8,10.8,81.81c2,8.74,4.78,8.74,4.78,8.74l68.23-33-18.93-64.33-8.15-25.43.22-10.52-35.62-14.65Z" style="fill:#625EFF"></path><path d="M125.69,190.77a2.13,2.13,0,0,1,.44.18l1.22.59,4.46,2.19c3.78,1.82,9.05,4.25,15,6.63,4.81,1.92,9.31,3.53,12.92,4.75l-.22.08a25.28,25.28,0,0,0,3.05-6.08c.26-.77.44-1.38.56-1.8a3,3,0,0,1,.2-.64,2.74,2.74,0,0,1-.09.67,17.25,17.25,0,0,1-.46,1.84,23.36,23.36,0,0,1-2.94,6.23l-.08.12-.14,0c-3.64-1.16-8.17-2.74-13-4.68-6-2.38-11.21-4.87-15-6.77-1.87-1-3.37-1.76-4.39-2.33l-1.18-.67C125.82,190.88,125.68,190.79,125.69,190.77Z" style="fill:#263238"></path><path d="M115.46,242.31c5.87,7.44,46.11,43.49,58.28,49.42,6.37,3.1,67.28-10.16,67.28-10.16l-5-23.51L180,260.45l-32.06-44a26,26,0,0,0-22.31-10.86" style="fill:#625EFF"></path><path d="M125.58,205.54l.38,0,1.11-.05c.49,0,1.1,0,1.82.05s1.56.14,2.49.32A25.65,25.65,0,0,1,138,208a27.17,27.17,0,0,1,7.61,5.53,39.32,39.32,0,0,1,3.5,4.35c1.14,1.57,2.35,3.21,3.6,4.92l8.09,11.07,19.32,26.47-.2-.09,56.11-2.42h.21l.05.21c1.07,5.06,2.2,10.42,3.35,15.85.55,2.62,1.1,5.23,1.62,7.66l.05.26-.25.05c-9.88,2.12-19.53,4.06-28.86,5.79s-18.33,3.29-27,4.27c-2.17.23-4.3.44-6.43.51a30.45,30.45,0,0,1-3.17,0c-.27,0-.53-.07-.79-.11a2.74,2.74,0,0,1-.79-.18,6.45,6.45,0,0,1-1.42-.69,88.84,88.84,0,0,1-9.9-6.72c-6.14-4.66-11.64-9.26-16.61-13.49-9.92-8.5-17.68-15.64-22.9-20.7-2.62-2.52-4.59-4.54-5.89-5.95s-1.89-2.21-1.89-2.21.18.18.5.54.79.93,1.47,1.6c1.32,1.38,3.3,3.38,5.94,5.88,5.27,5,13,12.11,23,20.57,5,4.21,10.5,8.78,16.63,13.42a87.57,87.57,0,0,0,9.86,6.66,6.23,6.23,0,0,0,1.35.66,2.81,2.81,0,0,0,.72.17c.25,0,.5.08.76.09a29.44,29.44,0,0,0,3.12,0c2.1-.07,4.23-.29,6.38-.52,8.62-1,17.62-2.57,26.94-4.29s19-3.68,28.84-5.81l-.2.31c-.51-2.43-1.07-5-1.62-7.66-1.15-5.43-2.28-10.79-3.35-15.85l.27.21L180,260.68h-.12l-.07-.1-19.26-26.52-8-11.1L148.88,218a37.89,37.89,0,0,0-3.45-4.33,26.7,26.7,0,0,0-7.5-5.53,26.29,26.29,0,0,0-6.57-2.18c-.93-.19-1.76-.26-2.48-.35s-1.32-.08-1.81-.09h-1.49Z" style="fill:#263238"></path><path d="M172.82,278.77a12.51,12.51,0,0,1,.31-2.91,39.38,39.38,0,0,1,1.9-6.79,38.9,38.9,0,0,1,3.11-6.33,11.69,11.69,0,0,1,1.7-2.37,26.54,26.54,0,0,1-1.38,2.56,50,50,0,0,0-5,13A24.3,24.3,0,0,1,172.82,278.77Z" style="fill:#263238"></path><path d="M126.53,370.86h-5.8a6,6,0,0,1-6-5.32c-1.15-9.47-3.42-35.85-3.45-36.11l4.14-.36c0,.26,2.3,26.57,3.43,36a1.89,1.89,0,0,0,1.88,1.66h5.8Z" style="fill:#e0e0e0"></path><path d="M126.53,370.86s0-.11,0-.29,0-.48,0-.81c0-.73,0-1.75,0-3.06l.09.1-3.23,0h-1.93a5.52,5.52,0,0,1-1.06,0,2,2,0,0,1-1-.54,2,2,0,0,1-.58-1.07c0-.4-.08-.78-.12-1.18-.08-.8-.17-1.62-.25-2.48l-.54-5.45c-.75-7.69-1.65-16.95-2.62-27l.26.23-3.07.26-1.07.09.23-.26c1.31,14,2.49,26.65,3.34,35.83a5.93,5.93,0,0,0,3.18,4.83c1.6.87,3.23.64,4.48.69l3,.06.78,0,.27,0-.24,0-.76,0-3,.05c-.65,0-1.37,0-2.17,0a6.15,6.15,0,0,1-5.88-5.68c-.9-9.18-2.13-21.81-3.49-35.83l0-.25.25,0,1.07-.09,3.07-.27.25,0,0,.25c.94,10,1.81,19.29,2.53,27,.17,1.92.34,3.74.49,5.45l.23,2.48c0,.39.06.8.11,1.16a1.7,1.7,0,0,0,.47.91,1.77,1.77,0,0,0,.87.47,5.5,5.5,0,0,0,1,.05h1.93l3.23,0h.1v.09q0,2-.06,3.12c0,.32,0,.58,0,.78A.71.71,0,0,1,126.53,370.86Z" style="fill:#263238"></path><path d="M219.06,375.93H126.32a6.25,6.25,0,0,1-6.25-6.25h0a6.25,6.25,0,0,1,6.25-6.26h92.74a6.25,6.25,0,0,1,6.25,6.26h0A6.25,6.25,0,0,1,219.06,375.93Z" style="fill:#455a64"></path><path d="M106.49,332.53,93.83,233.26a6.26,6.26,0,0,1,5.41-7h0a6.27,6.27,0,0,1,7,5.42L118.9,331a6.25,6.25,0,0,1-5.42,7h0A6.24,6.24,0,0,1,106.49,332.53Z" style="fill:#455a64"></path><polygon points="218.44 372.06 232.26 473.5 226.77 473.49 206.13 375.93 218.44 372.06" style="fill:#455a64"></polygon><polygon points="127.4 372.06 113.96 473.5 119.46 473.49 139.71 375.93 127.4 372.06" style="fill:#455a64"></polygon><path d="M222.45,375.93c0,.14-21.81.25-48.71.25s-48.71-.11-48.71-.25,21.8-.24,48.71-.24S222.45,375.8,222.45,375.93Z" style="fill:#263238"></path></g></svg>
